<?xml version="1.0" standalone="no"?><!DOCTYPE svg PUBLIC "-//W3C//DTD SVG 1.1//EN" "http://www.w3.org/Graphics/SVG/1.1/DTD/svg11.dtd"><svg t="1560738989251" class="icon" style="" viewBox="0 0 1941 1024" version="1.1" xmlns="http://www.w3.org/2000/svg" p-id="2730" xmlns:xlink="http://www.w3.org/1999/xlink" width="473.876953125" height="250"><defs><style type="text/css"></style></defs><path d="M308.148148 239.824593c5.745778-2.048 11.339852 1.744593 15.170371 5.745777 15.435852 15.530667 30.90963 31.04237 46.307555 46.592 3.280593 3.337481 7.168 6.637037 12.060445 6.902519 13.065481 1.194667 26.206815 0.398222 39.291259 0.474074 72.059259 0.113778 144.118519-0.056889 216.177778 0.094815 8.704 0.018963 17.540741-0.70163 26.149925 0.929185 9.102222 1.972148 15.378963 9.424593 21.750519 15.625481 19.342222 19.854222 39.120593 39.310222 58.349037 59.278223 6.959407 6.84563 5.916444 17.370074 3.337482 25.92237-26.263704 95.573333-51.863704 191.355259-78.544593 286.814815 27.610074-0.663704 55.239111-0.303407 82.849185-0.322371 4.570074-0.587852 10.638222 2.142815 9.140148 7.661038-3.944296 17.161481-9.045333 34.076444-13.615407 51.086222-1.327407 6.087111-5.480296 12.686222-12.610371 11.889778-125.800296 0.094815-251.619556 0.360296-377.438814 0.398222-7.717926-0.113778-15.606519 0-23.077926-2.23763-7.926519-2.427259-14.070519-8.343704-19.854222-14.01363-28.918519-29.221926-57.837037-58.462815-86.774519-87.665777-4.020148-4.228741-8.362667-8.286815-11.226074-13.425778-2.939259-5.195852-1.460148-11.377778-0.18963-16.839111 19.323259-70.390519 38.513778-140.818963 57.837037-211.209482 1.175704-3.413333 1.953185-8.154074 6.106074-9.083259 9.121185-2.048 18.583704-0.625778 27.856593-1.024 8.38163 0.360296 17.256296-1.365333 25.125926 2.389333-0.796444 8.609185-3.602963 16.820148-5.82163 25.125926-15.17037 55.466667-30.321778 110.952296-45.492148 166.418963-1.175704 5.252741-3.015111 10.865778-1.365333 16.213334 1.991111 5.12 6.030222 9.045333 9.765926 12.951703 17.711407 17.673481 35.252148 35.51763 53.020444 53.153186 4.608 4.911407 10.979556 8.135111 17.844148 7.698962 66.408296 0.113778 132.835556 0.170667 199.243852 0.227556 6.712889-0.18963 14.127407 0.075852 19.873185-3.982222 4.816593-3.697778 5.461333-10.202074 7.168-15.587556 26.282667-95.744 52.660148-191.469037 79.03763-287.175111 0.70163-2.787556 1.820444-6.030222-0.606815-8.324741-2.711704-1.479111-5.840593-1.460148-8.798815-1.536-123.335111 0.037926-246.651259 0-369.967407 0.018963-4.721778-0.018963-10.56237-0.170667-13.312-4.74074-3.166815-5.935407-1.099852-12.894815 0.379259-19.019852 8.741926-31.725037 17.351111-63.506963 26.036148-95.269926 1.270519-4.911407 3.584-10.391704 8.817778-12.155259zM929.545481 298.458074c30.264889 12.306963 60.472889 24.803556 90.680889 37.262222-3.716741 7.319704-7.926519 14.354963-11.984592 21.466074 30.738963 2.844444 61.496889 5.423407 92.254815 8.135111 1.441185 9.841778 2.654815 19.721481 4.22874 29.544297-8.609185 9.386667-17.957926 18.090667-26.680889 27.382518 11.776 0.341333 23.570963 0.474074 35.346963 0.720593 2.920296 19.493926 10.107259 38.703407 7.86963 58.633481-2.066963 48.033185-4.096 96.085333-6.162963 144.137482-0.360296 7.755852-0.18963 15.606519-1.85837 23.229629-4.664889 22.509037-9.329778 45.018074-13.861926 67.565038-29.771852-1.156741-59.543704-2.503111-89.315556-3.754667-1.232593-14.961778-2.654815-29.923556-3.754666-44.885333 14.942815-0.493037 29.904593-0.929185 44.847407-1.554963 0.948148-17.275259 1.668741-34.550519 2.597926-51.825778-27.989333-0.758519-56.016593-1.099852-84.024889-1.517037-4.494222 36.370963-8.267852 73.500444-21.371259 107.994074-25.41037-5.935407-49.038222-17.502815-72.324741-28.937482 21.029926-77.482667 31.459556-157.582222 34.683259-237.719703-6.97837 3.887407-13.786074 8.021333-20.840296 11.757037-12.705185-11.301926-25.524148-22.471111-38.191407-33.810963 33.716148-39.442963 60.283259-84.973037 77.861925-133.82163m55.239112 92.48237c-8.51437 10.221037-17.256296 20.271407-26.946371 29.411556 22.755556 0.360296 45.511111 0.70163 68.247704 1.156741 5.650963-8.192 10.998519-16.592593 16.308148-25.012148-19.190519-1.972148-38.418963-3.640889-57.609481-5.556149m-6.978371 73.576297c-0.18963 12.041481-0.587852 24.101926-0.796444 36.16237 6.637037 0.246519 13.255111 0.32237 19.911111 0.341333 0.530963-12.136296 1.175704-24.25363 1.649778-36.389925-6.921481-0.132741-13.842963-0.360296-20.764445-0.113778m62.881185 37.338074c6.200889 0.075852 12.401778 0.170667 18.62163 0.227555 0.549926-12.136296 1.232593-24.272593 1.706667-36.427851-6.219852-0.132741-12.439704-0.227556-18.659556-0.322371-0.625778 12.174222-1.270519 24.329481-1.668741 36.522667m-65.422222 39.386074c-0.587852 10.42963-1.21363 20.859259-1.934222 31.288889 6.731852 0.151704 13.463704 0.18963 20.214518 0.170666 0.398222-10.391704 1.024-20.783407 1.365334-31.156148-6.542222-0.113778-13.103407-0.208593-19.64563-0.303407m63.393185 1.156741c-0.398222 10.391704-1.024 20.783407-1.384296 31.175111 6.144 0.094815 12.306963 0.208593 18.469926 0.265481 0.512-10.410667 1.080889-20.840296 1.479111-31.250963-6.200889-0.170667-12.382815-0.284444-18.564741-0.189629zM1201.664 333.899852c20.328296-0.398222 40.656593-0.246519 60.965926-0.113778l-0.739556 53.703111c19.816296 1.308444 39.518815 4.001185 58.993778 7.907556 6.807704 58.007704 2.048 116.508444-4.114963 174.345481-18.925037 5.063111-38.115556 9.121185-57.514666 11.851852-0.417185 19.986963-0.739556 39.954963-0.872297 59.922963 10.069333-1.137778 20.15763-2.313481 30.189037-3.792593-1.706667-3.944296-3.470222-7.831704-5.157926-11.757037 12.022519-5.82163 24.120889-11.45363 36.21926-17.142518 14.563556 29.639111 28.975407 59.373037 43.425185 89.088-12.875852 5.897481-25.694815 11.889778-38.703408 17.445926-3.77363-8.059259-7.262815-16.251259-11.358814-24.139852-58.595556 9.02637-117.248 17.844148-175.862519 26.718815-2.408296-20.138667-4.683852-40.296296-6.921481-60.453926 21.769481-2.711704 43.538963-5.347556 65.289481-8.116148 0.474074-21.617778 0.986074-43.235556 1.232593-64.853334-19.019852-0.70163-38.001778-2.010074-56.869926-4.380444-9.746963-58.538667-7.850667-118.063407-4.854519-177.076148 21.390222-6.276741 43.292444-10.827852 65.403259-13.691259 0.872296-18.469926 0.83437-36.977778 1.251556-55.466667m59.657481 99.631407c-0.644741 30.947556-0.910222 61.914074-1.384296 92.880593 4.570074-0.018963 9.159111-0.018963 13.748148 0.018963 1.517037-31.383704 3.185778-62.748444 4.570074-94.132148-5.650963 0.379259-11.301926 0.815407-16.933926 1.232592m-77.312 6.01126c-0.151704 29.032296-0.018963 58.083556-0.037925 87.115851 4.645926 0 9.291852 0 13.95674 0.018963 0.625778-29.411556 1.156741-58.842074 1.763556-88.253629-5.233778 0.360296-10.467556 0.739556-15.682371 1.118815zM1516.980148 351.004444c63.089778-3.242667 126.046815-8.628148 189.003852-13.520592 2.446222 18.868148 4.949333 37.755259 7.281778 56.64237-34.62637 1.592889-69.233778 3.754667-103.822222 6.125037 0.815407 14.203259 1.972148 28.368593 2.806518 42.571852 34.133333-0.530963 68.266667-1.953185 102.437926-1.972148 0.853333 14.070519 1.744593 28.16 2.389333 42.249481-34.11437 2.74963-68.266667 5.30963-102.437926 7.224889 0.265481 15.435852 0.70163 30.871704 0.853334 46.326519 37.69837-0.018963 75.434667-0.568889 113.076148 2.066963 0.436148 13.880889 1.327407 27.742815 1.668741 41.623704l-1.251556 1.118814c-37.679407 4.342519-75.58637 6.447407-113.436444 8.836741-1.72563 45.397333-0.132741 91.629037-11.207111 136.021333-54.537481-0.132741-108.183704-13.255111-159.687112-30.283851 4.247704-9.216 8.267852-18.564741 13.027556-27.553186 23.760593 4.892444 47.540148 9.633185 71.35763 14.298074 3.413333-29.771852 3.716741-59.790222 5.082074-89.694814-58.671407 0.170667-117.399704-1.687704-175.900445-6.219852l-1.137778-1.099852c-0.398222-11.605333 0.056889-23.248593-0.151703-34.853926 59.145481-6.97837 118.765037-9.007407 178.232889-11.776 0.208593-15.341037-0.075852-30.701037-0.341334-46.042074-51.560296 0.70163-103.120593 1.365333-154.680889 1.592889-0.739556-13.653333-1.649778-27.268741-2.218666-40.922074 51.446519-2.597926 102.855111-5.650963 154.320592-7.698963-0.037926-14.070519-1.820444-28.046222-2.806518-42.059852-54.480593 1.953185-109.018074 2.787556-163.51763 1.915259-2.029037-15.265185-4.171852-30.53037-6.087111-45.814518 52.41363-2.484148 104.808296-5.366519 157.146074-9.102223z" fill="#FD5990" p-id="2731"></path><path d="M393.007407 445.857185c1.137778-4.494222 3.432296-10.164148 9.045334-9.860741 12.553481-0.18963 25.239704-0.967111 37.717333 0.682667 0.284444 4.342519-0.360296 8.666074-1.649778 12.8-11.282963 41.377185-22.072889 82.868148-33.393777 124.22637-0.815407 4.28563-4.171852 7.888593-8.817778 7.414519-12.458667-0.18963-25.201778 1.460148-37.470815-1.194667-0.018963-3.754667 0.32237-7.509333 1.384296-11.112296 11.131259-40.96 22.091852-81.976889 33.185185-122.955852zM512.70163 446.084741c1.175704-4.437333 3.242667-10.221037 8.83674-10.069334 12.667259-0.265481 25.467259-0.910222 38.096593 0.625778 0.303407 3.868444-0.246519 7.717926-1.384296 11.434667-11.529481 42.268444-22.433185 84.726519-34.190223 126.938074-1.498074 7.376593-10.107259 6.162963-15.739259 6.295704-10.069333-0.587852-20.498963 1.422222-30.283852-1.630815 0.056889-7.300741 2.522074-14.241185 4.399408-21.200593 10.088296-37.470815 20.176593-74.94163 30.264889-112.393481zM723.77837 543.744c2.37037-4.133926 7.831704-3.546074 11.908741-3.887407 17.08563-0.132741 34.190222 0 51.294815-0.056889 4.873481-0.094815 9.784889 0.246519 14.506667 1.630815 0.132741 10.315852-4.361481 19.911111-6.618074 29.82874-2.332444 7.698963-3.849481 15.68237-6.826667 23.172741-1.782519 5.12-7.812741 5.423407-12.363852 5.44237-19.000889-0.056889-38.001778 0.094815-56.983704-0.075851-3.830519 0.227556-9.462519-1.384296-8.685037-6.295704 1.270519-10.164148 5.006222-19.835259 7.395556-29.771852 1.991111-6.693926 3.090963-13.767111 6.371555-19.986963zM702.160593 620.600889c1.061926-4.077037 4.664889-6.921481 8.931555-6.712889 15.151407-0.625778 30.359704-0.075852 45.530074-0.265481 8.021333 0.170667 16.251259-0.815407 24.064 1.592888 1.024 7.850667-2.351407 15.246222-4.096 22.736593-2.863407 9.955556-4.93037 20.138667-8.343703 29.923556-2.048 6.523259-9.974519 5.650963-15.36 5.840592-21.067852-0.379259-42.17363 0.720593-63.184593-0.644741-0.910222-6.257778 1.460148-12.212148 2.958222-18.147555 3.280593-11.415704 5.82163-23.04 9.500445-34.322963z" fill="#FD5990" p-id="2732"></path></svg>