<?xml version="1.0" standalone="no"?><!DOCTYPE svg PUBLIC "-//W3C//DTD SVG 1.1//EN" "http://www.w3.org/Graphics/SVG/1.1/DTD/svg11.dtd"><svg t="1561022901587" class="icon" viewBox="0 0 1024 1024" version="1.1" xmlns="http://www.w3.org/2000/svg" p-id="9156" xmlns:xlink="http://www.w3.org/1999/xlink" width="250" height="250"><defs><style type="text/css"></style></defs><path d="M673.4 262.7H294.8c-34.8 0-63.1 28.3-63.1 63.1v413.8c0 42.3 25.3 80.2 64.4 96.6 25.4 10.7 54.9 2.1 70.5-20.5l102.8-123 1.4-1.9c4.2-6.4 10.6-7.1 13.1-7.1s36.4-20.1 40.7-13.7l107.8 128.4c11.1 16 18.9 32.5 37.3 32.5 6.4 0-7.8 9-1.7 6.7 40.8-15.3 68.2-54.7 68.2-98.1V325.8c0.2-34.8-28.1-63.1-62.8-63.1z" fill="current" opacity=".8" p-id="9157"></path><path d="M716.6 879.6c-22.9 0-45.6-11.4-59.5-31.4L527.2 692.5c-5.3-7.9-13.2-8.8-16.3-8.8-3.2 0-11.1 0.9-16.4 8.8l-1.8 2.4-128 153.1c-19.5 28-56.2 38.7-87.8 25.5-48.7-20.4-80.2-67.6-80.2-120.3V238c0-43.3 35.2-78.5 78.5-78.5h471.4c43.3 0 78.5 35.2 78.5 78.5v515.2c0 54-34.1 103.1-84.9 122.1-7.7 2.9-15.6 4.3-23.6 4.3zM570.4 661.9l129.9 155.6c4.9 7.4 14 10.9 21.3 8.2 30.2-11.3 50.5-40.5 50.5-72.5V238c0-14.1-11.5-25.6-25.6-25.6H275.2c-14.1 0-25.6 11.5-25.6 25.6v515.2c0 31.2 18.7 59.3 47.8 71.4 8.8 3.7 19 0.6 24.2-7.3l1.8-2.4 128-153.1c13.6-19.5 35.7-31.1 59.6-31.1 23.7 0.1 45.8 11.7 59.4 31.2z" fill="current" p-id="9158"></path><path d="M517 585l-14.9-0.1c-8.7-0.1-15.7-7.2-15.6-15.9l2.4-286.3c0.1-8.7 7.2-15.7 15.9-15.6l14.9 0.1c8.7 0.1 15.7 7.2 15.6 15.9l-2.4 286.3c-0.1 8.6-7.3 15.6-15.9 15.6z" fill="current" p-id="9159"></path><path d="M669.9 419.8l-0.1 14.9c-0.1 8.7-7.2 15.7-15.9 15.6L367.5 448c-8.7-0.1-15.7-7.2-15.6-15.9l0.1-14.9c0.1-8.7 7.2-15.7 15.9-15.6l286.3 2.4c8.7 0 15.7 7.2 15.7 15.8z" fill="current" p-id="9160"></path></svg>