<?xml version="1.0" standalone="no"?><!DOCTYPE svg PUBLIC "-//W3C//DTD SVG 1.1//EN" "http://www.w3.org/Graphics/SVG/1.1/DTD/svg11.dtd"><svg t="1560706706942" class="icon" style="" viewBox="0 0 1024 1024" version="1.1" xmlns="http://www.w3.org/2000/svg" p-id="2806" xmlns:xlink="http://www.w3.org/1999/xlink" width="300" height="300"><defs><style type="text/css"></style></defs><path d="M368.86 465.83c15.61-5.16 32.72-3.92 48.24 0.98 6.82 2.27 13.8 4.5 19.81 8.57-7.26 2.45-13.91 6.28-20.61 9.92-2.29 1.12-4.65 2.59-7.3 2.39-3.58-0.24-6.99-1.45-10.35-2.57-14.18-4.92-28.21-10.81-43.18-12.83 4.02-2.97 8.6-5.06 13.39-6.46z" fill="currentColor" p-id="2807"></path><path d="M349.49 474.63c8.11 2.37 16.27 4.63 24.17 7.67 3.98 1.49 7.5 3.94 11.45 5.5 3.78 1.58 7.79 2.7 11.34 4.81 1.42 0.89 3.33 2.2 2.53 4.16-2.49 2.94-5.76 5.09-8.49 7.79-10.75 10.2-20.83 21.07-30.91 31.92-3.09 3.23-6.55 6.16-8.95 9.98 7.61 0.18 13-5.99 18.58-10.26 14.34-13.32 28.51-26.88 43.92-38.98 10.02-7.72 20.47-15.98 33.33-18.06 8.4 6.29 18.22 10.52 26.18 17.47-13.13 7.95-28.04 12.24-42.7 16.37-10.88 3.04-21.99 5.21-32.87 8.22 4.87 3.99 10.74 6.46 16.29 9.34 17.36 8.16 35.03 16.14 53.87 20.2 16.47 3.64 33.78 6.07 50.45 2.28-3.9 17.07-17.35 29.7-31.03 39.56-12.61 9.37-27.8 15.57-43.6 16.12-17.03 0.52-33.65-5.74-47.67-15.1-16.15-10.84-29.62-25.29-40.79-41.13-7.51-10.9-14.74-22.23-19.11-34.81-2.8-7.58-2.91-15.89-1.66-23.8 1.63-4.54 3.71-9.07 6.92-12.71 3.22-1.74 6.5-3.56 8.75-6.54z" fill="#FCA61B" p-id="2808"></path><path d="M442.75 173.88c27.42-7.35 56.36-8.66 84.39-4.39 19.99 2.93 39.45 8.77 58.27 16.04 16.02 5.32 30.5 14.2 45.48 21.83 16.81-10.86 36.25-17.27 56-20.07 17.35-2.46 35.02-1.39 52.25 1.52 19.93 3.44 39.52 10.18 56.37 21.53 19.94 13.32 35.9 33.37 42.19 56.71-21.88 3.18-43.53 8.72-63.74 17.79-16 7.33-31.48 17.31-41.6 32.04 6.93 19.61 13.75 39.44 16.45 60.17 5.65 38.08-1.11 77.53-17.57 112.21-2.28 4.93-4.82 9.73-7.37 14.52 15.7-9.8 34.98-13.59 53.23-10.56 16.56 2.63 32.13 10.94 43.63 23.14 10.83 11.37 18.05 26.11 20.37 41.65 2.99 19.43-1.73 39.94-13.08 56.01-6.98 10.11-16.51 18.26-27.21 24.22 12.75 0.11 25.51-0.04 38.26 0.06 1.24-0.2 2.06 0.84 2.88 1.59 2.59 2.62 5.17 5.26 7.8 7.85 4.19-3.16 8.4-6.29 12.58-9.46 25.22-0.02 50.44 0.01 75.66-0.01-8.21 46.37-16.46 92.75-24.71 139.12-2.74 15.78-8.87 31.21-19.16 43.61-11.15 13.66-27.08 22.9-44 27.43-16.24 4.35-33.33 5.18-50 3.33-13.95-1.73-28.31-6.2-38.55-16.27-8.78-8.43-13.28-20.46-14.27-32.42-1.54-15.39 2.42-30.52 5-45.57 1.78-9.83 3.63-19.64 5.36-29.48-8.67 15.21-17.31 30.44-26 45.64-1.53 2.5-1.69 5.5-2.26 8.32-3.97 21.53-8 43.05-11.99 64.58-28.39 0.02-56.78 0.02-85.17 0 4.18-22.83 8.4-45.65 12.64-68.47 0.78-3.03-0.41-6.02-1.02-8.95-3.53-15.13-7.11-30.25-10.55-45.39-3.47 18.66-6.46 37.41-9.85 56.09-3.07 15.81-9.29 31.31-19.83 43.66-11.22 13.34-27.24 22.06-44.1 25.95-16.02 3.68-32.74 4.16-48.98 1.83-14.36-2.17-29.04-7.82-38.44-19.36-4.89-5.82-7.87-12.96-9.75-20.25-8.68 12.08-19.63 22.72-32.69 29.97-19.19 10.82-42.17 14-63.78 10.53-14.58-2.35-28.73-9.38-38.07-21.03-11.15-13.64-15.42-31.54-16.19-48.81-14.33 26.78-35.7 50.75-63.57 63.74-13.74 6.43-28.87 9.93-44.06 9.95-39.02-0.02-78.04 0-117.06-0.02 13.72-91.49 27.38-183 41.06-274.5 34.36 0.03 68.73-0.11 103.09 0.07-10.71-3.93-21.51-10.22-27.08-20.58-4.41-7.97-3.72-17.86 0.03-25.94 5-10.89 13.52-19.72 22.66-27.27 12.86-10.49 27.46-18.67 42.66-25.23 22.96-9.83 47.72-15.77 72.73-16.39 6.28-5.23 12.77-10.37 20.26-13.79 1.1-0.77 3.12-0.88 3.33-2.48l-1.54 0.78c-20.93-0.08-41.87-2.81-61.94-8.84-29.54-8.81-57.72-22.16-83.47-39.09 3.9-11.72 9.49-22.79 15.35-33.64 15.69-28.38 34.72-54.76 55.04-79.98 20.86-25.58 42.51-50.91 68.61-71.34 25.11-19.97 53.91-35.68 85.02-43.9m-12.53 28.36c-17.06-3.09-35.36 0.43-49.81 10.09-11.58 7.63-20.56 19.15-24.76 32.41l0.07 0.64c-28.12 22.36-52.75 49.09-74.53 77.67-17.77 23.56-33.93 48.42-47.26 74.77 30.23 19.9 65.69 32.86 102.07 33.86 22.55 0.76 44.78-4.94 65.63-13.16 31.8-12.76 61.14-31.36 86.98-53.8 22.61-19.94 43.32-43.25 54.91-71.43 0.36-0.19 1.08-0.56 1.44-0.75 4.46 1.42 6.32 6.33 8.34 10.13 7.89 18.23 10.37 38.55 8.99 58.27-1.41 17.34-6.88 34.71-17.75 48.49-10.98 14.05-27.07 23.71-44.31 27.9-23.66 5.87-48.17 6.16-72.33 8.24-4.22 0.57-8.91 0.48-12.38 3.32 2.76 3.12 6.83 4.41 10.6 5.86 14.93 5.19 30.29 9.11 45.79 12.17 16.01 3.44 32.85-0.35 47.13-7.93 1.29-0.57 2.5-1.55 3.98-1.55 1.65 2.47 1.28 5.63 0.7 8.39-1.68 6.93-5.96 12.92-10.81 18.02-10.87 10.96-24.75 18.43-39.03 23.96-19.42 6.98-39.61 11.55-59.8 15.64 21.08 8.29 43.25 14.43 65.91 15.97 19.59 1.43 39.13-3.53 56.87-11.59 30.06-13.83 56.17-35.08 78.83-58.96a135.58 135.58 0 0 1-20.92 40.93c-8.25 11.14-19.57 19.51-31.13 26.93-7.3 4.4-14.62 8.95-22.7 11.8-5.43 28.11-21.86 53.47-43.7 71.7-13.13 11.1-28.37 19.34-43.94 26.42-21.49-10.34-45.52-14.98-69.3-14.61-18.69 0.43-37.67 3.84-54.45 12.35 17.28 3.83 34.5 7.93 51.52 12.77 7.06 1.97 13.98 4.4 21.09 6.22 13.96 3.76 28.09 7.04 41.74 11.87 4.22 1.64 9.08 3.21 11.41 7.46 4.58 7.83 6.76 16.77 9.08 25.46 3.72 15.73 11.25 31.04 23.53 41.85 7.16-5.82 13.89-12.18 19.97-19.13 8.1-9.48 15.84-20.31 17.34-33.04 0.9-7.58 2.51-15.13 2.41-22.8 0.02-3.46-1.26-7.47-4.78-8.79-5.54-2-11.33 0.42-16.99 0.07 7.88-5.43 17.72-6.78 26.14-11.11 30.5-18.09 59.43-38.8 86.62-61.56 26.33-22.31 51-46.91 71.08-75.08 13.04-18.47 23.35-38.88 30.41-60.37 11.92-36.38 14.63-76.39 4.16-113.45-5.04-17.65-13.38-34.55-25.61-48.34-2.8-3.24-6.23-5.98-8.41-9.71-0.79-1.02-2.37-5.18 0.51-3.97 4.78 1.97 8.31 6 12.04 9.45 6.77 6.44 12.16 14.11 17.31 21.86 23.47-28.67 56.14-51.92 93.53-56.96-2.44-5.77-6.11-10.91-10.37-15.46-11.26-12.15-25.87-20.79-41.28-26.59-33.92-12.53-72.18-12.13-106.21-0.2-5.1 2.06-10.8 4.15-14.02 8.89-2.52 4.48 1.11 9.03 2.84 13.05-2.34-0.59-4.59-1.44-6.65-2.67-7.41-4.19-14.56-8.8-21.99-12.94-16.58-9.44-34.13-17.32-52.53-22.45-19.74-5.25-40.07-8.59-60.52-8.9-24.74-0.38-49.42 4.13-72.7 12.42m97.96 141.11c-4.2 6.05-8.77 11.83-13.49 17.48 6.21 7.18 13.68 13.15 21.51 18.48 1.47-2.74 2.75-5.57 3.98-8.41-2.89-9.62-6.82-18.95-12-27.55m-38.57 39.98c7.53 8.09 16.27 14.93 25.01 21.66 2.49-2.15 5-4.28 7.27-6.67-2.61-11.46-6.63-22.54-10.58-33.59-6.87 6.61-14.21 12.7-21.7 18.6m-36.55 23.19c10.13 5.17 20.42 10.02 30.82 14.62 3.51-1.3 7-2.67 10.46-4.13-2.68-10.34-5.54-20.64-8.01-31.03-10.35 7.96-21.36 15.13-33.27 20.54m-46.18 20.29c6.77 2.74 13.85 5.09 21.15 5.8 9.89-0.78 19.7-2.47 29.43-4.4-2.48-6.87-6.92-12.77-10.87-18.83-13.36 5.51-26.72 11.07-39.71 17.43m-27.47 28.72c-15.03 4.48-28.36 13.96-38.67 25.64-3.21 3.64-5.29 8.17-6.92 12.71-1.25 7.91-1.14 16.22 1.66 23.8 4.37 12.58 11.6 23.91 19.11 34.81 11.17 15.84 24.64 30.29 40.79 41.13 14.02 9.36 30.64 15.62 47.67 15.1 15.8-0.55 30.99-6.75 43.6-16.12 13.68-9.86 27.13-22.49 31.03-39.56-16.67 3.79-33.98 1.36-50.45-2.28-18.84-4.06-36.51-12.04-53.87-20.2-5.55-2.88-11.42-5.35-16.29-9.34 10.88-3.01 21.99-5.18 32.87-8.22 14.66-4.13 29.57-8.42 42.7-16.37 2.99-2.05 5.79-4.42 7.83-7.45-16.2-12.04-33.46-23.02-52.45-30.12-15.39-5.73-32.6-8.26-48.61-3.53m-73.29 22.78c-21.88 6.68-42.85 16.34-62.12 28.66-10.83 7.2-21.49 15.29-28.88 26.16-4.66 6.83-7.38 15.85-4.09 23.83 3.45 8.23 11.49 13.25 19.31 16.74 15.38 6.52 32.09 9.03 48.59 10.79 27.41 2.71 55.02 2.47 82.5 1.21a163.423 163.423 0 0 1-19.77-28.07c-1.27-2.59-2.57-5.15-3.87-7.71l-0.33 0.05c-0.62-1.42-1.24-2.84-1.84-4.25-0.96-2.54-2.23-4.94-3.48-7.33-5.01-11.81-10.02-24.27-9.36-37.34 0.43-9.64 5.52-18.23 11.29-25.65-9.38-2.41-18.94 0.32-27.95 2.91m449.05 31.96c-22.78 3.36-42.58 20.99-48.61 43.2-4.53 15.84-2.21 33.51 6.37 47.59 8.26 13.83 22.28 24.09 37.99 27.67 13.44 3.16 27.95 1.53 40.34-4.58 13.18-6.44 23.84-17.86 29.34-31.46 5.79-14.14 5.92-30.49 0.33-44.71-4.95-12.78-14.42-23.72-26.32-30.51-11.81-6.81-25.99-9.34-39.44-7.2M587.71 638.18c40.06 0.22 80.12 0.04 120.18 0.08-0.03 13.38-0.91 26.77-0.44 40.14 3.47-13.34 6.58-26.76 9.92-40.13 3.57 0.01 7.13 0.03 10.71-0.07-10.69-6.29-20.42-14.44-27.35-24.82-11.99-17.27-16.15-39.48-11.85-60.01-29 33.4-64.04 61.01-101.17 84.81M283.95 592.3c15.31 7.86 27.46 21.15 35.37 36.31 23.54-12.76 51.14-16.48 77.56-13.9-10.86-5.5-20.35-13.4-28.92-21.97-27.97 1.44-56.1 2.33-84.01-0.44m-138.89 5.6c-12.41 80.56-24.88 161.1-37.36 241.65 1.74 0.33 3.51 0.65 5.3 0.64 30.31-0.1 60.63 0.06 90.94-0.09 27.02-0.46 53.14-13.16 71.13-33.16 22.03-24.12 33.51-56.11 38.05-88.05 2.98-20.62 4.41-41.84 0.24-62.4-4.29-2.29-10.11-2.38-13.21-6.57-1.17-5.32 3.96-9.25 7.16-12.8-5.06-10.99-13.06-20.69-23.35-27.14-14.78-9.44-32.66-12.47-49.92-12.72-27.69-0.1-55.38 0.02-83.06-0.06-2-0.06-3.98 0.25-5.92 0.7m307.76 27.32c1.45 0.87 2.88 1.76 4.32 2.66 2.98-1.91 5.98-3.79 8.98-5.66-4.36 1.28-8.8 2.32-13.3 3m124.04 29.73c-6.66 38.19-13.28 76.38-20.17 114.52-1.13 5.74-2.88 11.79-7.23 15.95-2.63 2.65-6.72 3.73-10.3 2.6-2.85-1.05-4.48-4.03-5.09-6.85-0.68-4.66-0.3-9.4 0.61-13.99 6.49-36.56 12.72-73.16 19.32-109.69-5.11 2.7-10.24 5.37-15.53 7.71 2.82 7.92 3.7 16.42 3.06 24.78-1.31 17.53-8.46 34.1-17.69 48.86-6.8 10.59-14.25 20.96-23.69 29.38-4.34 3.7-9.27 7.45-15.16 7.9-3.59 0.34-5.98-2.74-8.29-4.95-2.74 15.02-2.87 31.87 6.07 44.96 8.42 12.47 23.71 17.8 38.05 19.49 16.26 1.39 33.11 0.68 48.48-5.28 13.8-5.18 25.83-15.02 33.32-27.75 6.93-11.36 10.13-24.49 12.03-37.53 4.16-24.66 8.52-49.28 12.83-73.91 1.95-10.14 3.22-20.43 5.63-30.47 8.98 35.75 17.43 71.64 26.18 107.45 0.94 2.93-0.28 5.91-0.68 8.83-3.48 19-6.99 37.99-10.57 56.97h56.52c2.79-4.83 2.79-10.54 3.95-15.85 2.93-15.91 5.39-31.92 8.72-47.74 21.29-36.3 43.23-72.25 64.74-108.43-5.68 33.38-11.62 66.72-17.43 100.09-1.94 11.5-4.59 23.23-2.63 34.92 1.31 11.74 7.56 23.05 17.59 29.53 12.78 8.32 28.57 10.1 43.5 9.72 13.03-0.1 26.18-2.55 37.98-8.2 9.52-4.57 17.99-11.41 24.21-19.96 7.79-10.49 12.24-23.11 14.46-35.89 6.81-39.13 13.8-78.23 20.52-117.37-19.04-0.02-38.08 0-57.12-0.01-6.49 35.69-12.54 71.46-18.86 107.19-1.5 8.19-2.29 17.49-8.65 23.61-3.7 3.89-11.59 4.28-14.1-1.13-3.1-6.63-0.99-14.15 0.11-21 6.19-36.46 13-72.83 18.84-109.34-36.81-0.03-73.62-0.02-110.42 0-10.59 24.73-20.97 49.56-31.84 74.17-1.34-5.67-1.06-11.53-1.76-17.27-1.43-18.96-2.82-37.94-4.2-56.9-36.72-0.04-73.44 0.02-110.16-0.03-1.78-0.09-3.48 0.41-5.15 0.91m-246.36 5.18c1.68 7.65 2.51 15.45 3.08 23.26 3.77-6.91 7.41-13.89 11.82-20.41-4.97-0.92-9.94-1.91-14.9-2.85m-1.08 71.46c-4.51 19.43-6.85 39.87-2.8 59.59 2.91 14.28 10.58 28.14 23.16 36.03 13.93 8.99 31.26 10.04 47.32 8.36 15.82-2.1 31.03-8.92 42.82-19.72 14.89-13.33 24.54-31.56 30.55-50.41 0.34-1.37 1.01-2.9 0.23-4.23-11.68-23.76-18.57-49.46-26.2-74.71-25.11-9.17-51.4-14.44-77.58-19.48-19.99 15.99-31.62 40.11-37.5 64.57z" fill="#250000" p-id="2809"></path><path d="M349.49 474.63c1.23-2.18 3.76-2.32 5.98-2.34 14.97 2.02 29 7.91 43.18 12.83 3.36 1.12 6.77 2.33 10.35 2.57 2.65 0.2 5.01-1.27 7.3-2.39 6.7-3.64 13.35-7.47 20.61-9.92 6.38-2.05 13.79-2.53 19.65 1.24-3.3 1.09-6.7 1.83-10.1 2.54-12.86 2.08-23.31 10.34-33.33 18.06-15.41 12.1-29.58 25.66-43.92 38.98-5.58 4.27-10.97 10.44-18.58 10.26 2.4-3.82 5.86-6.75 8.95-9.98 10.08-10.85 20.16-21.72 30.91-31.92 2.73-2.7 6-4.85 8.49-7.79 0.8-1.96-1.11-3.27-2.53-4.16-3.55-2.11-7.56-3.23-11.34-4.81-3.95-1.56-7.47-4.01-11.45-5.5-7.9-3.04-16.06-5.3-24.17-7.67zM748.83 543.36c15.15 8.78 30.38 17.45 45.48 26.33-15.16 8.75-30.32 17.51-45.47 26.26-0.02-17.53-0.01-35.06-0.01-52.59zM209.24 652.97c7.03-0.1 14.82-0.61 20.76 3.88 6.39 4.94 8.73 13.43 9.2 21.17 0.79 12.54-0.77 25.06-2.59 37.44-2.12 13.9-4.42 27.87-8.92 41.23-3.41 9.76-8.85 19.71-18.25 24.79-6.26 3.52-13.66 3.11-20.58 3.06 6.91-43.83 13.73-87.69 20.38-131.57zM404.37 697.44c4.31-1.82 10.73-1.66 13.15 3.03 2.22 4.46 2.48 9.65 2.47 14.56-1.01 16.04-3.69 31.96-7.48 47.57-2.14 7.83-4.28 15.99-9.29 22.54-3.34 4.46-10.03 6.46-15.03 3.71-3.66-2.02-4.32-6.6-4.98-10.32-0.98-9.92 0.72-19.83 2.08-29.63 2.22-12.96 4.45-26.05 9.2-38.37 2.13-5.02 4.69-10.59 9.88-13.09z" fill="#250000" p-id="2810"></path><path d="M430.22 202.24c23.28-8.29 47.96-12.8 72.7-12.42 20.45 0.31 40.78 3.65 60.52 8.9 18.4 5.13 35.95 13.01 52.53 22.45 7.43 4.14 14.58 8.75 21.99 12.94 2.06 1.23 4.31 2.08 6.65 2.67-1.73-4.02-5.36-8.57-2.84-13.05 3.22-4.74 8.92-6.83 14.02-8.89 34.03-11.93 72.29-12.33 106.21 0.2 15.41 5.8 30.02 14.44 41.28 26.59 4.26 4.55 7.93 9.69 10.37 15.46-37.39 5.04-70.06 28.29-93.53 56.96-5.15-7.75-10.54-15.42-17.31-21.86-3.73-3.45-7.26-7.48-12.04-9.45-2.88-1.21-1.3 2.95-0.51 3.97 2.18 3.73 5.61 6.47 8.41 9.71 12.23 13.79 20.57 30.69 25.61 48.34 10.47 37.06 7.76 77.07-4.16 113.45-7.06 21.49-17.37 41.9-30.41 60.37-20.08 28.17-44.75 52.77-71.08 75.08-27.19 22.76-56.12 43.47-86.62 61.56-8.42 4.33-18.26 5.68-26.14 11.11 5.66 0.35 11.45-2.07 16.99-0.07 3.52 1.32 4.8 5.33 4.78 8.79 0.1 7.67-1.51 15.22-2.41 22.8-1.5 12.73-9.24 23.56-17.34 33.04-6.08 6.95-12.81 13.31-19.97 19.13-12.28-10.81-19.81-26.12-23.53-41.85-2.32-8.69-4.5-17.63-9.08-25.46-2.33-4.25-7.19-5.82-11.41-7.46-13.65-4.83-27.78-8.11-41.74-11.87-7.11-1.82-14.03-4.25-21.09-6.22-17.02-4.84-34.24-8.94-51.52-12.77 16.78-8.51 35.76-11.92 54.45-12.35 23.78-0.37 47.81 4.27 69.3 14.61 15.57-7.08 30.81-15.32 43.94-26.42 21.84-18.23 38.27-43.59 43.7-71.7 8.08-2.85 15.4-7.4 22.7-11.8 11.56-7.42 22.88-15.79 31.13-26.93a135.58 135.58 0 0 0 20.92-40.93c-22.66 23.88-48.77 45.13-78.83 58.96-17.74 8.06-37.28 13.02-56.87 11.59-22.66-1.54-44.83-7.68-65.91-15.97 20.19-4.09 40.38-8.66 59.8-15.64 14.28-5.53 28.16-13 39.03-23.96 4.85-5.1 9.13-11.09 10.81-18.02 0.58-2.76 0.95-5.92-0.7-8.39-1.48 0-2.69 0.98-3.98 1.55-14.28 7.58-31.12 11.37-47.13 7.93-15.5-3.06-30.86-6.98-45.79-12.17-3.77-1.45-7.84-2.74-10.6-5.86 3.47-2.84 8.16-2.75 12.38-3.32 24.16-2.08 48.67-2.37 72.33-8.24 17.24-4.19 33.33-13.85 44.31-27.9 10.87-13.78 16.34-31.15 17.75-48.49 1.38-19.72-1.1-40.04-8.99-58.27-2.02-3.8-3.88-8.71-8.34-10.13-0.36 0.19-1.08 0.56-1.44 0.75-11.59 28.18-32.3 51.49-54.91 71.43-25.84 22.44-55.18 41.04-86.98 53.8-20.85 8.22-43.08 13.92-65.63 13.16-36.38-1-71.84-13.96-102.07-33.86 13.33-26.35 29.49-51.21 47.26-74.77 21.78-28.58 46.41-55.31 74.53-77.67 0.08 0 0.26 0.01 0.34 0.02-3.6 7.97-3.27 17.19-2.07 25.69 2.6 15.69 12.17 29.82 25.18 38.81 12.95 9.08 29.18 13.15 44.89 11.71 17.09-1.45 33.63-9.64 44.67-22.83 8.66-10.18 13.75-23.38 13.8-36.76 0.17-12.77-4.22-25.47-12.02-35.56-9.75-12.77-24.52-21.38-40.29-24.22m230.37 23.34c-3.26 1.56-6.19 4.14-7.36 7.65-1.44 4.39-0.59 9.25 1.32 13.37 2.76 2.15 7.03 1.78 9.64-0.48 1.92-1.51 3.02-3.73 4.17-5.83 2.14-4.36 6.55-6.87 10.59-9.23 10.62-5.75 22.3-9.6 34.27-11.3 15.73-1.92 31.4 1.91 47.11 1.94-3.13-2.34-7.03-3.15-10.65-4.41-11.47-3.88-23.58-5.91-35.7-5.67-18.59 0.34-36.78 5.8-53.39 13.96z" fill="#D7D7D7" p-id="2811"></path><path d="M322.68 553.03c4.13-2.71 7.93-6.38 12.94-7.31 0.6 1.41 1.22 2.83 1.84 4.25-4.99 0.66-9.91 1.78-14.78 3.06z" fill="#D7D7D7" p-id="2812"></path><path d="M380.41 212.33c14.45-9.66 32.75-13.18 49.81-10.09 15.77 2.84 30.54 11.45 40.29 24.22 7.8 10.09 12.19 22.79 12.02 35.56-0.05 13.38-5.14 26.58-13.8 36.76-11.04 13.19-27.58 21.38-44.67 22.83-15.71 1.44-31.94-2.63-44.89-11.71-13.01-8.99-22.58-23.12-25.18-38.81-1.2-8.5-1.53-17.72 2.07-25.69-0.08-0.01-0.26-0.02-0.34-0.02l-0.07-0.64c4.2-13.26 13.18-24.78 24.76-32.41m30.08-1.59c-15.3 1.98-29.96 10.06-39 22.69-7.38 10.1-10.64 23.15-8.59 35.51 1.84 11.89 8.47 22.78 17.69 30.41 11.7 9.78 27.32 14.47 42.48 13.31 16.35-1.08 32.37-9.15 42.19-22.4 7.32-9.72 10.84-22.25 9.32-34.35-1.48-13.13-8.86-25.21-19.22-33.26-12.52-9.86-29.14-14.04-44.87-11.91zM660.59 225.58c16.61-8.16 34.8-13.62 53.39-13.96 12.12-0.24 24.23 1.79 35.7 5.67 3.62 1.26 7.52 2.07 10.65 4.41-15.71-0.03-31.38-3.86-47.11-1.94-11.97 1.7-23.65 5.55-34.27 11.3-4.04 2.36-8.45 4.87-10.59 9.23-1.15 2.1-2.25 4.32-4.17 5.83-2.61 2.26-6.88 2.63-9.64 0.48-1.91-4.12-2.76-8.98-1.32-13.37 1.17-3.51 4.1-6.09 7.36-7.65z" fill="#222120" p-id="2813"></path><path d="M406.96 225.59c7.56-2.56 15.72-2 23.4-0.29-5.31 1.1-10.49 3.68-13.72 8.16-5.36 6.85-5.45 17.18-0.22 24.13 5.09 7.21 15.07 10.3 23.37 7.32 7.98-2.63 13.9-10.58 13.76-19.04 2.8 7.82 4.26 16.39 2.03 24.55-2.68 11.35-11.02 21.06-21.7 25.66-9.02 3.94-19.57 4.2-28.77 0.7-3.61-1.23-6.72-3.45-10.04-5.25 7.07 1.42 14.45-4.35 14.41-11.63 0.41-7.43-7.18-13.75-14.41-12.13-5.62 0.86-9.47 5.98-10.15 11.4-3.77-7.44-5.31-16.06-3.73-24.29 2.26-13.56 12.67-25.24 25.77-29.29zM305.01 562.98c6.2-10.85 16.85-17.99 27.13-24.59 1.25 2.39 2.52 4.79 3.48 7.33-5.01 0.93-8.81 4.6-12.94 7.31 4.87-1.28 9.79-2.4 14.78-3.06l0.33-0.05c1.3 2.56 2.6 5.12 3.87 7.71-12.3 0.99-24.84 1.46-36.65 5.35z" fill="#222120" p-id="2814"></path><path d="M410.49 210.74c15.73-2.13 32.35 2.05 44.87 11.91 10.36 8.05 17.74 20.13 19.22 33.26 1.52 12.1-2 24.63-9.32 34.35-9.82 13.25-25.84 21.32-42.19 22.4-15.16 1.16-30.78-3.53-42.48-13.31-9.22-7.63-15.85-18.52-17.69-30.41-2.05-12.36 1.21-25.41 8.59-35.51 9.04-12.63 23.7-20.71 39-22.69m-3.53 14.85c-13.1 4.05-23.51 15.73-25.77 29.29-1.58 8.23-0.04 16.85 3.73 24.29 0.68-5.42 4.53-10.54 10.15-11.4 7.23-1.62 14.82 4.7 14.41 12.13 0.04 7.28-7.34 13.05-14.41 11.63 3.32 1.8 6.43 4.02 10.04 5.25 9.2 3.5 19.75 3.24 28.77-0.7 10.68-4.6 19.02-14.31 21.7-25.66 2.23-8.16 0.77-16.73-2.03-24.55 0.14 8.46-5.78 16.41-13.76 19.04-8.3 2.98-18.28-0.11-23.37-7.32-5.23-6.95-5.14-17.28 0.22-24.13 3.23-4.48 8.41-7.06 13.72-8.16-7.68-1.71-15.84-2.27-23.4 0.29zM528.18 343.35c5.18 8.6 9.11 17.93 12 27.55-1.23 2.84-2.51 5.67-3.98 8.41-7.83-5.33-15.3-11.3-21.51-18.48 4.72-5.65 9.29-11.43 13.49-17.48zM489.61 383.33c7.49-5.9 14.83-11.99 21.7-18.6 3.95 11.05 7.97 22.13 10.58 33.59-2.27 2.39-4.78 4.52-7.27 6.67-8.74-6.73-17.48-13.57-25.01-21.66zM453.06 406.52c11.91-5.41 22.92-12.58 33.27-20.54 2.47 10.39 5.33 20.69 8.01 31.03-3.46 1.46-6.95 2.83-10.46 4.13-10.4-4.6-20.69-9.45-30.82-14.62zM406.88 426.81c12.99-6.36 26.35-11.92 39.71-17.43 3.95 6.06 8.39 11.96 10.87 18.83-9.73 1.93-19.54 3.62-29.43 4.4-7.3-0.71-14.38-3.06-21.15-5.8zM390.66 456.92c3.53-2.67 8.25-2.28 12.4-1.83 3.65 0.47 7.54 0.85 10.64 3.02 0.67 2.12-2.21 2.21-3.62 2.45-6.56 0.29-13.87 0.4-19.42-3.64z" fill="#FFFFFF" p-id="2815"></path><path d="M379.41 455.53c16.01-4.73 33.22-2.2 48.61 3.53 18.99 7.1 36.25 18.08 52.45 30.12-2.04 3.03-4.84 5.4-7.83 7.45-7.96-6.95-17.78-11.18-26.18-17.47 3.4-0.71 6.8-1.45 10.1-2.54-5.86-3.77-13.27-3.29-19.65-1.24-6.01-4.07-12.99-6.3-19.81-8.57-15.52-4.9-32.63-6.14-48.24-0.98-4.79 1.4-9.37 3.49-13.39 6.46-2.22 0.02-4.75 0.16-5.98 2.34-2.25 2.98-5.53 4.8-8.75 6.54 10.31-11.68 23.64-21.16 38.67-25.64m11.25 1.39c5.55 4.04 12.86 3.93 19.42 3.64 1.41-0.24 4.29-0.33 3.62-2.45-3.1-2.17-6.99-2.55-10.64-3.02-4.15-0.45-8.87-0.84-12.4 1.83zM755.17 510.27c13.45-2.14 27.63 0.39 39.44 7.2 11.9 6.79 21.37 17.73 26.32 30.51 5.59 14.22 5.46 30.57-0.33 44.71-5.5 13.6-16.16 25.02-29.34 31.46-12.39 6.11-26.9 7.74-40.34 4.58-15.71-3.58-29.73-13.84-37.99-27.67-8.58-14.08-10.9-31.75-6.37-47.59 6.03-22.21 25.83-39.84 48.61-43.2m-6.34 33.09c0 17.53-0.01 35.06 0.01 52.59 15.15-8.75 30.31-17.51 45.47-26.26-15.1-8.88-30.33-17.55-45.48-26.33zM145.06 597.9c1.94-0.45 3.92-0.76 5.92-0.7 27.68 0.08 55.37-0.04 83.06 0.06 17.26 0.25 35.14 3.28 49.92 12.72 10.29 6.45 18.29 16.15 23.35 27.14-3.2 3.55-8.33 7.48-7.16 12.8 3.1 4.19 8.92 4.28 13.21 6.57 4.17 20.56 2.74 41.78-0.24 62.4-4.54 31.94-16.02 63.93-38.05 88.05-17.99 20-44.11 32.7-71.13 33.16-30.31 0.15-60.63-0.01-90.94 0.09-1.79 0.01-3.56-0.31-5.3-0.64 12.48-80.55 24.95-161.09 37.36-241.65m64.18 55.07c-6.65 43.88-13.47 87.74-20.38 131.57 6.92 0.05 14.32 0.46 20.58-3.06 9.4-5.08 14.84-15.03 18.25-24.79 4.5-13.36 6.8-27.33 8.92-41.23 1.82-12.38 3.38-24.9 2.59-37.44-0.47-7.74-2.81-16.23-9.2-21.17-5.94-4.49-13.73-3.98-20.76-3.88zM576.86 654.95c1.67-0.5 3.37-1 5.15-0.91 36.72 0.05 73.44-0.01 110.16 0.03 1.38 18.96 2.77 37.94 4.2 56.9 0.7 5.74 0.42 11.6 1.76 17.27 10.87-24.61 21.25-49.44 31.84-74.17 36.8-0.02 73.61-0.03 110.42 0-5.84 36.51-12.65 72.88-18.84 109.34-1.1 6.85-3.21 14.37-0.11 21 2.51 5.41 10.4 5.02 14.1 1.13 6.36-6.12 7.15-15.42 8.65-23.61 6.32-35.73 12.37-71.5 18.86-107.19 19.04 0.01 38.08-0.01 57.12 0.01-6.72 39.14-13.71 78.24-20.52 117.37-2.22 12.78-6.67 25.4-14.46 35.89-6.22 8.55-14.69 15.39-24.21 19.96-11.8 5.65-24.95 8.1-37.98 8.2-14.93 0.38-30.72-1.4-43.5-9.72-10.03-6.48-16.28-17.79-17.59-29.53-1.96-11.69 0.69-23.42 2.63-34.92 5.81-33.37 11.75-66.71 17.43-100.09-21.51 36.18-43.45 72.13-64.74 108.43-3.33 15.82-5.79 31.83-8.72 47.74-1.16 5.31-1.16 11.02-3.95 15.85h-56.52c3.58-18.98 7.09-37.97 10.57-56.97 0.4-2.92 1.62-5.9 0.68-8.83-8.75-35.81-17.2-71.7-26.18-107.45-2.41 10.04-3.68 20.33-5.63 30.47-4.31 24.63-8.67 49.25-12.83 73.91-1.9 13.04-5.1 26.17-12.03 37.53-7.49 12.73-19.52 22.57-33.32 27.75-15.37 5.96-32.22 6.67-48.48 5.28-14.34-1.69-29.63-7.02-38.05-19.49-8.94-13.09-8.81-29.94-6.07-44.96 2.31 2.21 4.7 5.29 8.29 4.95 5.89-0.45 10.82-4.2 15.16-7.9 9.44-8.42 16.89-18.79 23.69-29.38 9.23-14.76 16.38-31.33 17.69-48.86 0.64-8.36-0.24-16.86-3.06-24.78 5.29-2.34 10.42-5.01 15.53-7.71-6.6 36.53-12.83 73.13-19.32 109.69-0.91 4.59-1.29 9.33-0.61 13.99 0.61 2.82 2.24 5.8 5.09 6.85 3.58 1.13 7.67 0.05 10.3-2.6 4.35-4.16 6.1-10.21 7.23-15.95 6.89-38.14 13.51-76.33 20.17-114.52zM329.42 731.59c5.88-24.46 17.51-48.58 37.5-64.57 26.18 5.04 52.47 10.31 77.58 19.48 7.63 25.25 14.52 50.95 26.2 74.71 0.78 1.33 0.11 2.86-0.23 4.23-6.01 18.85-15.66 37.08-30.55 50.41-11.79 10.8-27 17.62-42.82 19.72-16.06 1.68-33.39 0.63-47.32-8.36-12.58-7.89-20.25-21.75-23.16-36.03-4.05-19.72-1.71-40.16 2.8-59.59m74.95-34.15c-5.19 2.5-7.75 8.07-9.88 13.09-4.75 12.32-6.98 25.41-9.2 38.37-1.36 9.8-3.06 19.71-2.08 29.63 0.66 3.72 1.32 8.3 4.98 10.32 5 2.75 11.69 0.75 15.03-3.71 5.01-6.55 7.15-14.71 9.29-22.54 3.79-15.61 6.47-31.53 7.48-47.57 0.01-4.91-0.25-10.1-2.47-14.56-2.42-4.69-8.84-4.85-13.15-3.03z" fill="#FFD715" p-id="2816"></path></svg>