<?xml version="1.0" standalone="no"?><!DOCTYPE svg PUBLIC "-//W3C//DTD SVG 1.1//EN" "http://www.w3.org/Graphics/SVG/1.1/DTD/svg11.dtd"><svg t="1561022807260" class="icon" viewBox="0 0 1024 1024" version="1.1" xmlns="http://www.w3.org/2000/svg" p-id="7461" xmlns:xlink="http://www.w3.org/1999/xlink" width="250" height="250"><defs><style type="text/css"></style></defs><path d="M407.358923 555.270034c-147.221549 0-267.032997-119.811448-267.032997-267.032997S260.137374 21.20404 407.358923 21.20404s267.032997 119.811448 267.032996 267.032997c0 147.393939-119.639057 267.032997-267.032996 267.032997z m0-478.039058c-116.363636 0-211.178451 94.642424-211.178452 211.178452 0 116.363636 94.642424 211.178451 211.178452 211.178451s211.178451-94.642424 211.178451-211.178451S523.894949 77.230976 407.358923 77.230976z m0 0" fill="current" p-id="7462"></path><path d="M662.841751 543.202694c-14.136027 0-26.203367-10.688215-27.927273-24.824243s7.585185-27.23771 21.548822-30.513131c96.021549-22.238384 163.081481-106.882155 163.081481-205.661953 0-121.707744-87.574411-217.039731-199.283502-217.039731-15.342761 0-27.927273-12.584512-27.927272-27.927272 0-15.342761 12.584512-27.927273 27.927272-27.927273 143.084175 0 255.138047 119.983838 255.138048 272.894276 0 124.983165-84.816162 231.86532-206.351516 260.137374-2.068687 0.689562-4.137374 0.861953-6.20606 0.861953z m0 0" fill="current" p-id="7463"></path><path d="M497.00202 559.752189C292.02963 559.752189 125.845118 726.109091 125.845118 931.081481c0 2.413468 0.172391 7.068013 0.17239 7.068014s63.439731 68.611448 410.979125 67.059933c74.127946-15.342761 219.625589-86.540067 219.625589-86.540068-17.411448-197.559596-94.125253-305.648485-259.620202-358.917171z m0 0" fill="current" p-id="7464"></path><path d="M431.838384 1014.690909c-131.534007 0-236.002694-11.032997-310.30303-32.926599-59.647138-17.583838-82.747475-37.236364-89.815489-44.821549-8.96431-9.653872-13.963636-22.238384-14.136027-35.512458v-7.240404C17.411448 679.563636 191.870707 505.104377 406.66936 505.104377c214.626263 0 389.257912 174.459259 389.257913 389.085522 0 17.239057-8.274747 33.443771-22.410775 43.442424-3.10303 2.241077-31.547475 21.893603-86.884848 40.684175-70.852525 24.13468-152.910438 36.374411-243.93266 36.374411h-10.860606z m-358.572391-115.156902c3.447811 2.93064 20.686869 16.377104 66.542761 29.306397 47.579798 13.618855 137.050505 29.823569 291.857239 29.823569h10.860606c105.675421 0 181.182492-18.10101 225.83165-33.27138 42.752862-14.480808 66.19798-29.134007 71.369697-32.581819-0.689562-183.078788-149.979798-331.851852-333.230976-331.851851-183.76835 0-333.230976 149.462626-333.230977 333.230976v5.344108z m0 0" fill="current" p-id="7465"></path><path d="M978.83367 918.66936c-15.342761 0-27.927273-12.584512-27.927273-27.927272 0-191.525926-170.666667-324.783838-288.581818-343.574411-7.412795-1.206734-13.963636-5.171717-18.273401-11.205387s-6.03367-13.446465-4.999326-20.85926c2.413468-15.342761 16.721886-25.686195 32.064646-23.272727C808.339394 513.723906 1006.760943 668.358249 1006.760943 890.742088c0 15.342761-12.584512 27.927273-27.927273 27.927272z m0 0" fill="current" p-id="7466"></path></svg>