<?xml version="1.0" standalone="no"?><!DOCTYPE svg PUBLIC "-//W3C//DTD SVG 1.1//EN" "http://www.w3.org/Graphics/SVG/1.1/DTD/svg11.dtd"><svg t="1560734704923" class="icon" style="" viewBox="0 0 1024 1024" version="1.1" xmlns="http://www.w3.org/2000/svg" p-id="5617" xmlns:xlink="http://www.w3.org/1999/xlink" width="200" height="200"><defs><style type="text/css"></style></defs><path d="M509.14 265.17c43.2-2.45 86.85 3.47 127.76 17.62 35.43 12.21 68.94 30.45 97.6 54.69 25.57 21.59 47.15 48.19 61.55 78.49 9.45 19.88 15.78 41.27 18.42 63.13 1.98 16.64 1.98 33.89-3.44 49.94-5.12 15.96-15.63 29.94-29.02 39.93-17.59 13.25-38.7 20.8-59.83 26.24-35.79 8.88-72.63 12.2-109.28 15.24-39.01 2.95-78.05 5.44-117 9.05-26.32 2.15-52.62 4.62-79 5.7-23.68 1.14-47.5 1.13-71.07-1.66-20.67-2.62-41.59-7.62-59.38-18.88-13.45-8.43-24.3-20.89-30.76-35.39-8.76-19.42-10.62-41.17-9.78-62.23 1.37-45.95 17.99-90.97 45.36-127.77 33.01-44.69 80.41-77.78 132.45-96.57 27.4-10.08 56.35-15.48 85.42-17.53m-25.56 79.57c-3.99 0.6-8.02 2.03-10.9 4.95-3.99 4.03-6.43 9.29-8.37 14.55-4.79 13.4-6.74 27.61-8.02 41.72-1.91 24.03-1.29 48.27 1.98 72.16 2.17 14.78 5.16 29.67 11.44 43.32 3.12 6.32 7.15 12.95 13.84 15.94 6.84 2.65 14.41 1.55 21.4 0.12 14.98-3.43 29.11-9.81 42.72-16.82a351.508 351.508 0 0 0 51.78-33.25c12.94-10.19 25.61-21.12 35.38-34.49 4.43-6.44 9.15-14.38 6.59-22.46-3.29-9.12-10.46-16.12-17.38-22.62-13.22-11.84-28.07-21.72-43.39-30.63-18.29-10.5-37.41-19.7-57.45-26.35-12.75-3.98-26.14-7.77-39.62-6.14zM650.55 716.6c15.07-5.85 29.81-13.09 42.46-23.27 0.58 20.51-4.39 41.03-12.88 59.62l-0.78-0.8c-6.24-6.59-13.28-12.49-18.58-19.93-3.86-4.9-7.05-10.27-10.22-15.62zM426.45 753.41c-0.95-8.33-2.82-16.95-0.73-25.24 15.74 4.83 32.05 7.62 48.42 9.22-9.83 17.27-25.3 30.63-42.14 40.84-0.32-0.42-0.97-1.26-1.29-1.69-0.5-7.86-3.39-15.31-4.26-23.13z" fill="#F6F8FA" p-id="5618"></path><path d="M538.74 194.15c17.88-18.43 40.1-33.58 65.31-39.69 4.52-1.28 8.88 1.25 13.2 2.3 33.11 11.19 62.6 31.24 88.21 54.73 26.56 24.58 48.85 53.52 67.45 84.49 1.22 1.98 2.44 3.98 3.38 6.13-24.83-27.23-49.04-55.29-77.38-79.02-23.21-19.79-49.94-35.02-77.8-47.24-3.35-1.25-6.46-3.55-10.09-3.79-25.34 2.17-49.53 11.13-72.28 22.09zM256.3 160.16c46.84 5.62 93.41 17.81 135.05 40.43 3.04 1.76 6.3 3.22 9.1 5.39-6.61-1.53-12.86-4.22-19.38-6.02-34.65-10.37-70.71-17.6-107.03-16.46-2.84 0.2-6.21-0.26-8.19 2.25-11.08 11.14-19.08 24.86-26.51 38.57-15.78 30.04-28.26 61.72-39.01 93.87-2.94 8.44-5.1 17.13-7.86 25.61 4.85-58.48 24.62-115.07 53.18-166.1 3.38-5.95 6.84-11.86 10.65-17.54zM423.05 261.46c78.16-26.55 165.73-21.8 241.64 9.96 31.37 13.18 60.86 31.03 86.53 53.41 26.61 23.37 49.17 51.74 63.97 84.03 8.61 18.51 14.83 38.14 18.17 58.28 4.45 26.25 3.95 54.32-7.32 78.87-1.76 3.71-3.42 7.56-6.17 10.66-1.86 4.77-5.55 8.55-8.66 12.53-18.97 22.22-46.45 34.98-74.02 42.98-39.74 11.32-81.12 14.88-122.14 18.33-28.66 2.22-57.35 4.05-86 6.38-49.61 3.87-99.2 9.72-149.05 9.07-20.3-0.48-40.69-2.02-60.52-6.58-15.47-3.64-30.75-8.98-44.14-17.69-15.08-9.65-27.69-23.23-35.71-39.27-10.78-21.03-14.34-45.02-14.18-68.44 0.15-50 16.51-99.55 45.11-140.46 36.72-52.78 91.82-91.61 152.49-112.06m86.09 3.71c-29.07 2.05-58.02 7.45-85.42 17.53-52.04 18.79-99.44 51.88-132.45 96.57-27.37 36.8-43.99 81.82-45.36 127.77-0.84 21.06 1.02 42.81 9.78 62.23 6.46 14.5 17.31 26.96 30.76 35.39 17.79 11.26 38.71 16.26 59.38 18.88 23.57 2.79 47.39 2.8 71.07 1.66 26.38-1.08 52.68-3.55 79-5.7 38.95-3.61 77.99-6.1 117-9.05 36.65-3.04 73.49-6.36 109.28-15.24 21.13-5.44 42.24-12.99 59.83-26.24 13.39-9.99 23.9-23.97 29.02-39.93 5.42-16.05 5.42-33.3 3.44-49.94-2.64-21.86-8.97-43.25-18.42-63.13-14.4-30.3-35.98-56.9-61.55-78.49-28.66-24.24-62.17-42.48-97.6-54.69-40.91-14.15-84.56-20.07-127.76-17.62z" fill="#964708" p-id="5619"></path><path d="M483.58 344.74c13.48-1.63 26.87 2.16 39.62 6.14 20.04 6.65 39.16 15.85 57.45 26.35 15.32 8.91 30.17 18.79 43.39 30.63 6.92 6.5 14.09 13.5 17.38 22.62 2.56 8.08-2.16 16.02-6.59 22.46-9.77 13.37-22.44 24.3-35.38 34.49a351.508 351.508 0 0 1-51.78 33.25c-13.61 7.01-27.74 13.39-42.72 16.82-6.99 1.43-14.56 2.53-21.4-0.12-6.69-2.99-10.72-9.62-13.84-15.94-6.28-13.65-9.27-28.54-11.44-43.32-3.27-23.89-3.89-48.13-1.98-72.16 1.28-14.11 3.23-28.32 8.02-41.72 1.94-5.26 4.38-10.52 8.37-14.55 2.88-2.92 6.91-4.35 10.9-4.95zM821.38 557.09c1.08-0.77 2.01-2.07 3.48-2.01 27.48-1.16 55.07 1.51 81.91 7.42 0.6 4.24 0.77 8.53 1.08 12.8 0.74 20.85-0.31 41.79-3.98 62.34-17.15-21.79-35.96-42.32-56.98-60.45-8.3-6.93-16.34-14.32-25.51-20.1zM135.6 622.48c34.21-16.2 71.35-26.14 109.02-29.69-2.25 2.68-4.72 5.17-7.21 7.63-36.83 38.09-66.49 83.16-86.26 132.34-20.19-28.61-34.16-61.51-41.27-95.77 8.23-5.42 16.87-10.21 25.72-14.51zM760.16 654.19c19.97 1.14 39.7 5.81 58.14 13.56 21.3 8.86 40.68 21.86 58.13 36.87 1.56 1.48 3.61 2.82 4.03 5.11-15.81 30.97-38.02 58.64-64.77 80.84-3.85-20.13-8.04-40.27-14.49-59.76-9.1-27.59-21.2-55-41.04-76.62zM691.07 662.1c4.99-4 13.24-1.76 15.49 4.23 2.38 6.72-1.31 13.69-5.3 18.98 3.14 26.8-4.51 53.49-15.41 77.74-18.68-4.17-36.5-12.42-51.37-24.52-4.94-3.61-8.98-8.23-13.46-12.33-44.7 10.91-91.09 15.21-137.04 12.18-11.91 22.43-32.07 39.32-54.07 51.4-18.47-21.5-30.61-48.08-35.74-75.89-4.78-3.84-9.74-8.02-11.99-13.91-0.79-4.19 2.75-7.95 6.52-9.2 3.82-1.59 9.25-2.41 12.05 1.41 5.07 6.44 12.84 9.81 20.21 12.87 23.23 9.01 48.25 12.19 73 13.46 37.69 1.63 75.64-1.64 112.46-9.92 21.75-5.09 43.43-11.86 62.74-23.33 6.26-3.88 12.73-7.99 17.06-14.08 1.33-3.15 1.7-7.07 4.85-9.09m-40.52 54.5c-6.54 2.52-13.26 4.48-19.86 6.79 13.59 13.25 30.23 23.84 48.66 28.76l0.78 0.8c8.49-18.59 13.46-39.11 12.88-59.62-12.65 10.18-27.39 17.42-42.46 23.27m-246.3 3.13c4.96 20.39 13.39 40.28 26.46 56.81 0.32 0.43 0.97 1.27 1.29 1.69 16.84-10.21 32.31-23.57 42.14-40.84-16.37-1.6-32.68-4.39-48.42-9.22-7.36-2.26-14.57-5.03-21.47-8.44zM245.41 723.33c24.41-21.26 53.97-37.06 85.82-43.47-7.92 12.32-14.33 25.59-18.98 39.49-13.41 39.82-17 82.22-17.01 124.01-35.89-14.67-69.69-34.86-98.91-60.41 12.7-22.56 29.58-42.65 49.08-59.62z" fill="#964708" p-id="5620"></path><path d="M538.74 194.15c22.75-10.96 46.94-19.92 72.28-22.09 3.63 0.24 6.74 2.54 10.09 3.79 27.86 12.22 54.59 27.45 77.8 47.24 28.34 23.73 52.55 51.79 77.38 79.02 7.87 8.29 16.39 15.97 24 24.53 53.77 58.4 92.12 132.04 104.03 210.88 1.7 12.52 3.3 25.13 3.53 37.78-0.31-4.27-0.48-8.56-1.08-12.8-26.84-5.91-54.43-8.58-81.91-7.42-1.47-0.06-2.4 1.24-3.48 2.01 9.17 5.78 17.21 13.17 25.51 20.1 21.02 18.13 39.83 38.66 56.98 60.45-4.07 25.04-12.17 49.37-23.41 72.09-0.42-2.29-2.47-3.63-4.03-5.11-17.45-15.01-36.83-28.01-58.13-36.87-18.44-7.75-38.17-12.42-58.14-13.56 19.84 21.62 31.94 49.03 41.04 76.62 6.45 19.49 10.64 39.63 14.49 59.76l0.03 0.16c-38.84 32.57-85.41 54.88-133.79 69.26-63.4 18.83-130.04 24.83-195.95 22.75-65.12-2.43-130.36-14.21-190.74-39.19v-0.19c0.01-41.79 3.6-84.19 17.01-124.01 4.65-13.9 11.06-27.17 18.98-39.49-31.85 6.41-61.41 22.21-85.82 43.47-19.5 16.97-36.38 37.06-49.08 59.62-16.98-14.87-32.24-31.7-45.18-50.19 19.77-49.18 49.43-94.25 86.26-132.34 2.49-2.46 4.96-4.95 7.21-7.63-37.67 3.55-74.81 13.49-109.02 29.69-8.85 4.3-17.49 9.09-25.72 14.51-9.46-45.82-7.33-93.65 3.72-138.99 13.92-56.57 41.57-109.54 78.87-154.2 2.76-8.48 4.92-17.17 7.86-25.61 10.75-32.15 23.23-63.83 39.01-93.87 7.43-13.71 15.43-27.43 26.51-38.57 1.98-2.51 5.35-2.05 8.19-2.25 36.32-1.14 72.38 6.09 107.03 16.46 6.52 1.8 12.77 4.49 19.38 6.02 1.3 0.39 2.59 1.25 4 0.66 42.73-11.48 87.43-15.77 131.56-12.24 0.68-0.06 2.05-0.19 2.73-0.25m-115.69 67.31c-60.67 20.45-115.77 59.28-152.49 112.06-28.6 40.91-44.96 90.46-45.11 140.46-0.16 23.42 3.4 47.41 14.18 68.44 8.02 16.04 20.63 29.62 35.71 39.27 13.39 8.71 28.67 14.05 44.14 17.69 19.83 4.56 40.22 6.1 60.52 6.58 49.85 0.65 99.44-5.2 149.05-9.07 28.65-2.33 57.34-4.16 86-6.38 41.02-3.45 82.4-7.01 122.14-18.33 27.57-8 55.05-20.76 74.02-42.98 3.11-3.98 6.8-7.76 8.66-12.53 2.75-3.1 4.41-6.95 6.17-10.66 11.27-24.55 11.77-52.62 7.32-78.87-3.34-20.14-9.56-39.77-18.17-58.28-14.8-32.29-37.36-60.66-63.97-84.03-25.67-22.38-55.16-40.23-86.53-53.41-75.91-31.76-163.48-36.51-241.64-9.96M691.07 662.1c-3.15 2.02-3.52 5.94-4.85 9.09-4.33 6.09-10.8 10.2-17.06 14.08-19.31 11.47-40.99 18.24-62.74 23.33-36.82 8.28-74.77 11.55-112.46 9.92-24.75-1.27-49.77-4.45-73-13.46-7.37-3.06-15.14-6.43-20.21-12.87-2.8-3.82-8.23-3-12.05-1.41-3.77 1.25-7.31 5.01-6.52 9.2 2.25 5.89 7.21 10.07 11.99 13.91 5.13 27.81 17.27 54.39 35.74 75.89 22-12.08 42.16-28.97 54.07-51.4 45.95 3.03 92.34-1.27 137.04-12.18 4.48 4.1 8.52 8.72 13.46 12.33 14.87 12.1 32.69 20.35 51.37 24.52 10.9-24.25 18.55-50.94 15.41-77.74 3.99-5.29 7.68-12.26 5.3-18.98-2.25-5.99-10.5-8.23-15.49-4.23z" fill="#F4A018" p-id="5621"></path><path d="M630.69 723.39c6.6-2.31 13.32-4.27 19.86-6.79 3.17 5.35 6.36 10.72 10.22 15.62 5.3 7.44 12.34 13.34 18.58 19.93-18.43-4.92-35.07-15.51-48.66-28.76zM404.25 719.73c6.9 3.41 14.11 6.18 21.47 8.44-2.09 8.29-0.22 16.91 0.73 25.24 0.87 7.82 3.76 15.27 4.26 23.13-13.07-16.53-21.5-36.42-26.46-56.81z" fill="#F3ECDE" p-id="5622"></path></svg>