<?xml version="1.0" standalone="no"?><!DOCTYPE svg PUBLIC "-//W3C//DTD SVG 1.1//EN" "http://www.w3.org/Graphics/SVG/1.1/DTD/svg11.dtd"><svg t="1560704517415" class="icon" style="" viewBox="0 0 1024 1024" version="1.1" xmlns="http://www.w3.org/2000/svg" p-id="1698" xmlns:xlink="http://www.w3.org/1999/xlink" width="200" height="200"><defs><style type="text/css"></style></defs><path d="M304.5 904.3a149.3 26.6 0 1 0 298.6 0 149.3 26.6 0 1 0-298.6 0Z" fill="currentColor" p-id="1699"></path><path d="M529.7 232.9c5 3.4 11 3.1 16.4 5.1 3.5 1.2 7.4 1.4 10.7 2.9 4.7 2.1 8.3 1.5 12.5-1.4 14.9-10.4 31.5-17.3 48.7-23.1 15.1-5.2 30.6-8.8 46.3-11.1 14.9-2.2 30.1-3.8 45.1-0.3 8.9 2.1 14.5 7.9 17.3 16.6 10.5 31.8 11.4 64.7 9.4 97.6-1.4 22.7-5.2 45.2-14.9 66.3-2.4 5.2 0.9 10.2 2.2 15.1 2.3 8.9 3.9 17.9 5.5 27 2.8 15.2 1.9 30.5 1.6 45.8-0.5 21.1-4.9 41.5-16.1 59.6-11.4 18.5-28.4 30.2-48.5 37.8-8.3 3.1-17.1 4.6-25.4 7.6-3.7 1.9-7.6 2.8-11.6 3.4-10.3 0.9-20.6 2.7-31 3.1-25.3 1-48 11-71.3 19.1-14.6 5.1-29 10.6-44.4 13.1-1.8 0.3-3.2 1.6-5.1 1.7-2.6 0.2-5.1 0.2-7.7 0.4-11.4 3.1-23 1.4-34.5 1.7-3.9 0-7.4-2.5-11.4-2-16.4-2.6-32.2-7.3-48-12.6-18.2-6-36.1-12.8-54.7-17.6-10.1-2.6-20.4-3.4-30.7-4.8-4.5-0.6-8.8-2.5-13.4-2.1-4.1-0.4-8-1.5-11.8-3.2-8.8-2.6-17.7-4.9-26.3-7.9-18-6.2-34.2-15.4-47.1-29.8-8.8-9.9-14.9-21.4-18.5-34.2-4.5-15.6-6.4-31.5-5.6-47.6 0.7-13.3 2.2-26.4 5.1-39.5 2.2-9.9 4.7-19.6 8.1-29.2 0.6-1.6 0.5-3.8-0.2-5.3-7.2-15.6-10.6-32.3-12.8-49-3-23.4-3.8-46.9-1-70.5 1.2-10.1 2.6-20.2 4.6-30.1 1.6-7.7 3.9-15.4 8.1-22.2 3.5-5.7 9.6-7.2 15.8-8.5 16.9-3.5 33.6-0.9 50.3 1.9 28.2 4.6 55 13.4 79.9 27.6 2 1.1 3.9 2.3 5.7 3.7 4 3.1 7.4 4.5 13.1 2.4 11.6-4.2 23.9-6.7 36.1-8.8 2.4 0.5 4.9 0.5 7.3 0.4 3.2-0.2 5.9 1.1 8.7 2.5 8.8 4.2 17.5 8.5 26.6 12.1 4.3 1.7 8.2 4 12.1 6.2 13.9 8.1 29 11.8 44.8 11.2 11.8-0.4 23.6-2 34.4-7.9 8.5-4.6 14.1-10.9 13.9-21.1 0.4-0.8 0.3-1.9 1.7-2.1z" fill="#FCCC41" p-id="1700"></path><path d="M216.6 639.1c7.1-7.6 14.1-15.2 21.3-22.6 6.8-7 14.2-13.3 22.3-18.9 2.1-1.5 3.5-3.2 3.3-6-0.3-3.6 0.6-7.1 1.6-10.5 2 1.8 1.4 4.1 1.2 6.3-2.6 7.6 1.4 12.7 6.6 17.4 15.5 14.2 33.6 23.8 53.2 31 19 6.9 38.4 11.9 58.6 13.9 0.8 0.1 1.6 0.2 2.4 0.5 1.1 0.4 2.1 1.1 3.2 1 11.6-0.8 22.9 2.3 34.5 2.3 2.6 0 4.3-0.8 5.7-2.8 2.3 2.3 3.3 8.3 1.6 11-2 3.1-5.2 2.5-7.9 1.8-8.6-2-17.3-2.4-26.1-2.5-2 0-3.9 0.3-5.8 0.9-2.2 0.7-3.9 1.9-4 4.3-0.1 2.2 1.6 3.7 3.4 4.4 3.5 1.3 7 2.5 10.9 2.5 10.9-0.1 21.8 0 32.7 0 1 0 2-0.1 2.9 0 2 0.2 5-0.5 5 2.4 0 2.4-2.9 2.2-4.7 2.3-3.7 0.1-4.9 2-4.7 5.3 0.5 10.4-1.3 20.8-1 31.2 0.2 6.5-0.6 7.3-6.9 6.5-10.2-1.2-20.3-2.6-30.6-2-2 0.1-3.9 0.1-5.4 1.7-2.5 2.6-2.2 4.5 1.4 7.5 3.1 2.5 7.1 1.4 10.5 2.3 8 2 16.1 1.2 24.2 1.4 5.6 0.1 6.7 1 6.6 6.5-0.1 11.4 0.6 22.7-0.4 34.1-1.8 3.6-4.8 2.8-8 2.3-8.5-1.4-17-2.6-25.6-3.1-2.5-0.1-4.8 0.6-7.1 1.5-2.2 0.9-3.5 2.6-3.5 4.8 0 2.3 1.9 4 4 4.4 4.6 0.8 9 2.5 13.9 2.4 10.6-0.3 21.2-0.1 31.7 0 2.1 0 5.5-0.7 5.5 2.3 0 2.6-3.2 2.3-5.2 2.2-4.1-0.1-5.2 2-5.3 5.7-0.7 17.5-9.4 26.8-26.8 29.8-10.4 1.8-20.6 1.5-31.1 0.2-10.8-1.3-21.6-2.5-32.4-4-14-2-27.3-6.2-40.4-10.9-16.7-6-32.8-13.4-47.8-23.2-2.5-1.6-4.6-3.7-7.1-5.2-9.1-5.8-11.7-14.8-11.7-24.6 0-8.6-2.3-17.1-1.7-25.7 0.1-1.4-0.2-3-1.6-3.9-10.6-15.8-24.5-28.4-38.7-40.8-0.6-0.5-1.2-1.1-1.6-1.8-4.2-5.3-2.3-10.1 1.3-14.9 2.6-3.5 3.8-3.8 6.8-0.6 4.9 5.2 9.6 10.6 14.4 15.9 4.1 4.4 8.1 8.9 12.5 13.1 2.6 2.4 4.1 5.8 7.2 7.8 4.6-9.8 3.8-13.6-4.3-21.4-6.9-8-14.7-15.1-22-22.6-5.1-5.2-5-5.4-0.6-11.2 3.1-4.1 6.1-8.1 9.6-11.7zM640.8 594.9c10.9 7.6 19.7 17.5 29 26.9 1.2 1.2 2.6 2.4 3.8 3.6 5.8 4.1 9.1 10.4 13.8 15.6 5.8 6.3 10.4 13.7 15.7 20.5 0.9 1.2 1.7 2.4 1.4 4-9.9 9.6-19.3 19.8-29.3 29.3-6.4 6.1-6.6 12.7-5.6 21.3 7.9-10.1 16.6-18.4 25.2-26.8 5.2-5.1 10-10.6 15.7-15.3 5.9 4.7 7 9.9 3.3 15.8-6.3 6.8-13.7 12.3-20.3 18.7-6.8 6.7-13.2 13.7-18.5 21.7-4.2 4.5-6 10-5.6 16 0.5 7.4-1.2 14.4-2.3 21.6-0.2 1.6-0.8 3.1-1.9 4.4-2.2 1.3-4.1 2.9-5.8 4.9-7.6 7.3-16.9 12.2-26 17.2-22.2 12.3-45.5 22-70.4 27.2-18.4 3.9-37.1 7-56.1 6.5-7.2-0.2-14.2-1.7-20.7-4.9-8.6-4.2-13.3-11.1-15.1-20.3-0.6-3.2-1.6-6.4-1.7-9.6-0.2-4.4-3-4.3-6.1-4.2-3.3 0-5.8 0.8-6 4.7-0.5 8.3 0.4 16.5 2 24.7-3.4 0.6-3.4 0.6-4.3-3.2-0.7 1.8 1.1 3.6 0.3 5.5-1.6 1-2.8-0.3-2.8-1.3 0-2.6-2.3-0.6-2.9-1.7-1-1.7-0.8-3.4-0.4-5.2 0.8-4.2 0.7-8.3 0.2-12.5-0.4-3.4 0-6.7 2.3-9.6-1.8-1.1-3.9 0.4-5.5-0.9-0.7-3.6 2.2-2.8 4-3.2 14.3-3.5 28.8-1.6 43.2-1.9 4.7-0.1 9-1.2 13.4-2.3 1.9-0.5 3.7-1.6 3.7-4 0-2.5-1.2-4.4-3.7-5.1-4.6-1.3-9.5-1.2-14-0.4-6.1 1.1-12.4-0.2-18.4 1.9-2.5 0.9-4.7-1-4.7-3.6-0.2-12-1.2-24 0.5-36 2-2 4.5-1.4 6.9-1.5 9.8-0.2 19.7 0.8 29.4-2 2.5-0.7 5.8-0.8 4.7-5-0.6-6.8-1.7-8-8.3-7.9-7.5 0-15-0.7-22.3 1.6-1.1 0.4-2.3 0.2-3.4 0.3-6.7 0.1-7.8-0.8-7.7-7.4 0.1-8.8-0.8-17.6 0.9-26.3 0.3-1.7 0.1-3.6 0-5.4-0.3-8.3-0.1-8.6 8.5-8.6 6.2 0 12.4-0.2 18.6 0.1 3.7 0.1 7-1.4 10.4-2.3 2.3-0.6 2.6-2.6 2.6-4.7-0.1-2-1.1-3.5-3.1-3.8-2.9-0.5-5.7-1.6-8.7-1.1-6.9 1.2-13.9 0.4-20.8 2-4.9 1.2-6.5-0.1-6.3-5 0.1-3.5-1.8-7.5 2-10.3 1.1 0.6 1.4 1.8 1.5 2.9 0.3 2.3 1.7 2.9 3.8 2.8 3.1-0.2 6.3 0.5 9.2-0.4 7.4-2.1 14.8-1.6 22.3-1.7 2.5 0 4.8-0.6 7.1-1.4 1.9-0.5 3.8-0.5 5.7-0.5 2.9 0.4 5.6-0.5 8.3-1.4 1.2-0.3 2.5-0.4 3.8-0.5 3 0.1 5.8-0.9 8.7-1.5 18.8-5.1 37.4-10.7 54.9-19.5 14.8-7.4 28-17 39.2-29.3 0.5-0.9 1.3-2 2.7-2.2z" fill="#0091D5" p-id="1701"></path><path d="M792.6 600.3c-0.8 2.1-3 1.7-4.6 2.3-16.8 6.1-28 18.2-35.9 33.8-9.1 18.1-12.8 37.4-14.7 57.4-1.7 17.9 0.1 35.5 3.4 52.8 4 20.6 11.2 40.2 25 56.7 4 4.8 8.6 8.8 14 12 1.7 3.4-1.3 2.5-2.6 2.6-5.5 0.2-10.9 0.2-16.4-0.8-8.6 0.2-16.9-1.8-25.3-3.6-15.7-3.4-31.5-5.1-47.6-4.2-3.1 0.2-6.1-0.1-9.2-0.1-8.8-1.9-15.3-7.5-21.9-13.1l-3.6-3.3c-0.6-2.6 1.7-4 2.8-5.8 1.2-2.1 2.8-3.9 3.3-6.4 1.6-2.9 3-5.9 4.9-8.5 2.8-5.8 2.8-12.2 3.7-18.4 0.5-3.4 0.4-6.8 0.3-10.2 0-5.9 2.2-10.7 6.7-14.5 5.3 0.4 9.1 4.1 13.4 6.5 8 4.3 16 8.6 24.9 11 7.8 2.2 11.8-0.5 12.4-8.7 0.8-11.7-3-22.4-6.9-33.1-1.8-5-4.6-9.7-5.6-15 4.6-6 0.1-10.4-2.6-15.1-3.7-2-5.4-5.4-6.4-9.3-8.7-12.6-18.2-24.5-28.1-36.2-0.9-1.1-2.1-2-2.4-3.6 8.6-4.9 17.8-8.2 27-11.7 9.1-3.5 18.4-7 27.9-9.3 18-4.3 36.2-8 54.9-5 3 0.4 6.1 0.5 9.2 0.8zM529.7 232.9c-0.2 0.5-0.4 0.9-0.6 1.4-3 6.8-9.4 10-15.4 12.7-15.8 7.2-32.4 9.9-49.9 6.9-13.9-2.3-26.9-7.2-40.2-11.6-7.9-2.6-15.9-4.7-23.8-7-5.3-1.6-10.6-2.9-16.1-3-1.5 0-2.4-0.8-2.7-2.3 9-13.8 22.7-21.8 36.9-29.1 14.9-7.6 30.6-13.6 44.4-23.3 8.7-6.1 14.5-13.7 13-25.2 9.9 9.1 21.8 33.2 12 45.6 0.2 0.8 0.9 0.9 1.5 0.8 6.8-0.8 13 1.8 19.4 3.3 10.5 2.5 20.1-0.9 29-6.6 1.1-0.7 1.9-2.7 3.6-1.9 1.9 0.9 1.1 2.9 1 4.4-0.4 12.9-3.1 25.1-12.1 34.9z" fill="#663128" p-id="1702"></path><path d="M651.2 795.2c-1.8 0-2.9 1.3-4.1 2.4-16.9 16.9-37.4 27.9-59.6 35.9-5 1.8-10.5 2.5-14.9 5.7-10.6 3.2-21.4 5.3-32.3 6.5-16.1 1.7-32.3 1.5-48.4 3-5.5 0.5-11 0.5-16.6 0.7-10.1 0.4-20.1 2.4-30.2 1-14.2-2-28.5-1.3-42.7-3.2-10.6-1.4-21.7-0.4-32.6-1.1-10.4-0.6-20.5-2.5-30.6-4.9-1.1-1-2.5-1.5-3.9-1.8-31.1-8.1-59.3-21.4-82-44.8-1-1-1.9-2.9-4-1.7-0.9 2.1-0.3 3.5 1.7 4.5 2.4 5.6 4.5 11.3 7.3 16.7 12 23.1 27 44.1 44.2 63.5 4.6 5.2 10.2 9.5 13.7 15.6 5.2 2.8 9 7.3 13.7 10.8 8.4 6.3 18.1 9.1 28.1 10.6 6.4 0.9 12.7 2.3 19.3 2.3 10.3 0 20.3-1.1 30.1-4.1 4.5-1.4 7.5-5.1 10.5-8.5 5.2-6 9.9-12.4 13.6-19.5 1.3-2.6 3.1-3.9 5.8-3 10.6 3.6 21.2 3.7 31.8 0.1 2.4-0.8 4.2-0.4 5.7 2.1 4.3 7.2 9.2 14.1 13.4 21.4 3.5 6 9.2 7.9 15.1 9.3 15.1 3.5 30.4 2.8 45.4-0.1 12.7-2.4 25.3-6 34.1-16.7 1.6-1.9 3.2-4.2 6-4.8 0.1-1.8 1.5-2.8 2.5-4 12.6-15 23.8-31 35.2-47 5-7 7.8-15.7 15.2-21-0.3-1.9 0.6-3.5 1.8-4.9 4.3-4.9 6.5-10.9 9-16.8 0.8-1.9 0.3-3.2-1.3-4.2z" fill="#FCCC41" p-id="1703"></path><path d="M482.4 633.5c8-6 16.1-11.7 25.8-14.8 9.4-3.1 19-5.2 28.6-6.9 16.4-2.9 32.5-7 48.2-12.5 14.1-5 27.8-10.9 41.3-17.2 0.8-0.4 1.5-1.1 2.3-1.7 4-0.1 7.6-2.9 11.9-2 0.3 3.3 0.5 6.5 0 9.8-2.4-0.8-1-2.4-1.1-3.3-0.2 2.7-1.1 5.5-3.7 7.7-9.6 8.1-18.5 16.9-29.1 23.6-16.7 10.5-34.3 18.9-53.3 24.7-12 3.6-24 6.9-36.3 8.8-0.1 0-1-0.2-0.5 0.4 0.2 0.3 0.8 0.5 1.1 0.8-1.5 1.4-3.5 2-5.4 1.9-12.2-1-24.2 2.3-36.3 2.5-1.9 0-2.3-0.5-2.3-2 0-1.8 0-3.6-0.1-5.4 0.7-1.9 1.4-3.8 2.2-5.7l5.1-6.9c0.1-1 0.7-1.5 1.6-1.8zM425.4 639.1c1.7 3.9 4.4 7.3 5.1 11.6 0.5 3.2-0.4 4-4 4.1-12 0.3-23.7-3.3-35.7-2.2-1.7 0.2-3.2-0.6-4.3-1.9-5.4-2.7-11.4-3-17.1-4.3-28.1-6-54.3-16.6-77.8-33.2-10-7-18.8-15.4-26.3-25.1 0-2.4-0.1-4.7-0.1-7.1v-2.6c4.3-1 8 2 12.1 2 9.8 7.1 20.9 12 31.8 17.1 18.6 8.7 38.2 14.6 58.1 19.5 13.3 3.3 26.9 5.6 39.9 10 4.5 1.5 8.4 4.2 12.5 6.2 2.6 1.4 5 2.9 5.8 5.9z" fill="#007EC6" p-id="1704" data-spm-anchor-id="a313x.7781069.0.i1" class="selected"></path><path d="M381 230c2 2.3 4.9 1.5 7.3 1.9 14.7 1.9 28.5 6.7 42.4 11.6 13.6 4.8 27.2 9.6 41.7 10.1 21.2 0.8 40.9-3.8 56.7-19.3 1.7 10.4-3.3 17.9-14.2 23-15.8 7.3-32.2 9.5-49.9 7-14.6-2.1-26.5-9.2-39.3-15.1-8.4-3.8-16.3-9-25.5-11-0.5-0.1-1.1 0-1.4-0.3-4.5-4.8-10.3-4.9-16.2-4.6-1.1 0.1-1.8-0.7-2.1-1.7 0.2-0.5 0.3-1 0.5-1.6z" fill="#F4B732" p-id="1705"></path><path d="M517.5 650.8c-1.4-0.1-2.8-0.2-4.8-0.3 3.1-3 6.6-2.8 9.5-3.3 22-3.4 42.9-10.6 62.8-20.2 16.1-7.7 31.1-17.5 43.8-30.4 3.8-3.8 9.5-6.1 10.1-12.6 1.3 1.3 0.1 3.2 1.5 4.1 0.1 2.3 0.2 4.5 0.3 6.8-8.8 12.5-21.3 20.6-33.9 28.5-14 8.6-29.6 13.6-44.9 18.9-5.7 2-11.9 3.4-18 4.5-2.9 0.7-6 0.7-8.8 1.9h-3.9c-2.5 1-5.4 0.7-7.8 1.9-2 0.2-3.9 0.2-5.9 0.2z" fill="#0072AD" p-id="1706"></path><path d="M191 684.1l-1-1c-4.4-6.7 1-11.2 4.1-15.8 4.9-7.4 10.3-14.4 15.6-21.5 1.9-2.6 4-5.1 7-6.6-3.4 4.4-6.5 8.9-10.2 13-2.5 2.9-2.1 4.7 0.4 7.3 7.8 8 16.3 15.4 23.3 24.2 1.2 1.5 1.9 3 1.1 4.9-1.1 2.6-1.7 5.2-2.1 8-0.3 1.7-1.1 3.2-3.3 2.3-8.8-9.5-17.9-18.9-26.4-28.6-3.1-3.5-4.3-2.8-6.4 0.6-2.6 4.3-4.3 8.4-0.6 12.9-0.3 0.8-0.9 0.8-1.5 0.3z" fill="#E5F3F7" p-id="1707"></path><path d="M654.1 792c6.2 5.1 11.7 11 19.3 14.4 1.8 0.8 4.3 0.7 5.4 2.9-6.7 2.9-14.2 2.7-20.9 5.7-5.2 2.3-10.7 4.1-16.1 6.1-1.7-0.3-2.3-1.1-1.3-2.6 1.9-2.8 3.5-5.9 5.9-8.3 2.4-2.5 2.6-5.8 3.6-8.7 0.6-1.7 3.9-3.7 1.3-6.3 0.1-1.9 0.3-3.5 2.8-3.2z" fill="#F4BC16" p-id="1708"></path><path d="M690 460.5c-0.2 33.8-15 52.5-38.7 65.1-15.4 8.2-31.9 9.3-49.2 6.5-22.8-3.6-43.7-12.5-64.8-21.1-19.7-8.1-39.2-16.8-59.9-21.9-19.4-4.8-38.8-4.4-58.2 0.9-23.5 6.3-45.5 16.3-68 25.2-16.8 6.7-34 12-51.8 16-29.3 6.6-65-7.1-81.6-32-9.6-14.5-11.6-30.4-8.1-47.1 6.1-28.8 23.2-51 44.1-70.6 15.1-14.3 32.3-25.4 51.6-33.2 23.2-9.3 45.7-8.1 67.5 4.7 14.9 8.8 27.7 20.3 41.2 31 8.6 6.9 17.2 13.7 28 17.1 7.2 2.3 13.8 1.2 20.3-1.7 14.6-6.6 25.8-17.9 38.1-27.7 12.2-9.7 24.4-19.3 39.2-24.9 14.6-5.5 29.2-6.5 44.3-1.7 42.6 13.3 73.4 40.9 94.9 79.3 7.1 12.9 11.6 26.7 11.1 36.1z" fill="#663128" p-id="1709"></path><path d="M189 291.2c-0.8-12.8 1.4-25.1 4.9-37.4 1.8-6.3 7.5-9.4 13.5-9.7 15.6-0.9 30.5 2 45.2 7.2 9.6 3.4 18.8 7.5 26.8 14 5.1 4.1 5.4 5.5 1.9 11.3-6.9 11.2-16 20.4-25.8 29-13 11.6-27 21.8-43 28.9-3.6 1.6-7.5 2.6-11.4 3.7-4 1.1-5.3-1.3-6.1-4-2.3-7.5-4.1-15.1-5.3-23-0.9-6.7-0.4-13.3-0.7-20zM687.4 244.1c5 0.2 9.9-0.6 14.8 1.8 2.3 1.2 4.1 2.3 5.1 4.7 3.5 8.8 5.2 17.9 5.9 27.3 0.7 8.6 0.6 17.1 0.2 25.7-0.5 11.1-3.7 21.5-6.4 32-1 4.1-5.1 2.7-7.5 2-5.1-1.5-10-3.7-14.7-6.2-20.5-10.8-37.5-26-53.4-42.5-4.3-4.4-7.8-9.5-11-14.8-2.1-3.5-1.7-6.1 1.9-8.7 12.3-8.7 25.5-14.7 40.4-17.8 8.2-1.6 16.2-3.9 24.7-3.5z" fill="#F8A500" p-id="1710"></path><path d="M452.9 543.4c-9.6 0.6-18.7-1.1-27-6-4.5-2.7-8.5-5.9-8.3-12.1 0.2-6.1 4.2-9.2 8.9-11.6 16.7-8.5 33.8-7.9 50.7-1.2 5.8 2.3 11.5 5.7 11.2 13.6-0.3 7.7-6.1 10.6-11.8 13.3-7.5 3.5-15.5 4.6-23.7 4z" fill="#663128" p-id="1711"></path><path d="M482.3 574.3c0.4 13.2-9 25.6-20.6 29.3-12.9 4.2-29.6-5-34.1-18.2-1.1-3.3-3.2-6.5-1.4-10.2 2.4-1 4.9-0.4 7.2-0.1 12 1.1 24-0.2 36-0.1 2.5 0 4.9-0.3 7.2-0.9 1.9-0.6 3.8-1.1 5.7 0.2z" fill="#A35045" p-id="1712"></path><path d="M509.8 562.9c-4.1 7.8-12 11.3-20.3 9-2.3-0.7-4.6-1.6-7.1-1.2-2.6 0.5-5.2-0.2-7.7-0.8-10.2-2.8-20.6-1.5-30.9-1.6-4.7 0-9.2 1.7-13.8 2.8-1.6 0.4-3.1 0.9-4.8 0.7-8 1.3-15.7 1.6-23-2.9-9.8-6-8.2-18.5-2.9-25.2 0.5-0.6 1.2-1.2 2.4-0.5-0.7 2.3-1.4 4.8-2.3 7.2-1.9 5.2-0.8 9.1 3.5 12.5 6.9 5.4 15.1 5.4 22.8 3.3 16.6-4.6 33.2-5.6 49.9-1.7 5.3 1.2 10.7 2.6 16 3.9 6.2 1.5 13.3-2.6 16.2-9.3 0.8-1.1 0.5-3.4 2.5-2.9 1.7 0.5 0.7 2.5 0.8 3.8 0 1-0.9 1.9-1.3 2.9z" fill="#783C3C" p-id="1713"></path><path d="M431.7 625.3c-1.6-3.7-6.1-4.3-8.1-7.5 3.8-1 7.1 1.1 10.7 1.8 8.3 4.8 12.8 12.7 16.9 20.9 3.9-9.2 8.1-18.4 18.2-22.8 2.9-0.1 5.8-0.1 8.7-0.2-2.3 2.8-5.7 4.5-7.6 7.8-0.3 0.9-0.9 1.5-1.8 1.8-7 6.5-11.7 14-11.5 23.9v4.9c-0.1 6.8-2.6 8.4-8.6 5.2-2.1-1.1-1.3-3.1-1.4-4.8-1-10.3-4-19.8-11.6-27.3-2-0.6-3.3-1.9-3.9-3.7z" fill="#027DC6" p-id="1714"></path><path d="M425.3 571.7c5.2-3.1 11.2-4.3 17-4.7 12.1-0.8 24.2-0.8 36.2 1.9 1.4 0.3 2.9 0.6 3.9 1.8 0 1.2-0.1 2.4-0.1 3.6-17.2 4-34.6 2.7-52 2.1-1.5 0-2.9-0.5-4.2-1.2-0.3-1.2-0.5-2.3-0.8-3.5z" fill="#F6ECEA" p-id="1715"></path><path d="M469.3 617.7c-6.8 4.9-11.8 11.2-15.3 18.8-1 2.3-0.4 4.8-2.8 7.9-3.5-10.2-9.5-18-17-24.8 6.9 0 13.9-0.1 20.8 0 4.9 0 9.7-0.2 14.3-1.9z" fill="#C8814A" p-id="1716"></path><path d="M509.8 562.9c-0.2-2 1.5-3.9 0.5-6.1-1.7-0.5-1.5 1.7-2.6 2.1v-9.4c4.8 3.3 5.4 8.7 2.1 13.4z" fill="#B17D40" p-id="1717"></path><path d="M191 684.1c0.5-0.1 1-0.2 1.4-0.4 9.9 9.1 20.2 17.6 29.1 27.7 4 4.6 8 9.3 10.6 14.9-11.7 6.7-23.3 13.9-35.9 19-3 1.2-6.1 2.3-9.2 2.9-6.4 1.3-11.5-3-11.9-9.5-0.6-9.7 2.4-18.8 5-28 2.8-9.2 8-17.4 10.9-26.6z" fill="#FCCC41" p-id="1718"></path><path d="M265.3 588.2c3.4 1.2 5 4.3 7.3 6.7 10.4 11.3 22.8 20 36 27.7 8.4 4.9 17.1 9.3 26.3 12.4 11.2 3.8 22.4 8.1 34.2 10 6.2 1 12.1 3 18.4 3.8 0.7 0.1 1.9 0.1 1.2 1.3-0.3 0.5-1.4 0.4-2.2 0.6-11-0.5-21.7-2.7-32.4-5.3-11.2-2.7-22.2-6.2-32.9-10.3-17.2-6.6-33.1-15.3-47-27.7-2.5-2.3-4.8-4.7-7.1-7.2-3.5-3.6-3.6-7.6-1.8-12z" fill="#0071AC" p-id="1719"></path><path d="M225.9 698.8c0.5-0.2 1.3-0.3 1.3-0.5 0.2-5.1 3.9-9.4 3-14.7 8 6.4 9.7 13.2 5.8 23.3-0.9 2.3-1.9 1.1-2.7 0.1-2.5-2.6-4.9-5.4-7.4-8.2z" fill="#C8DFEA" p-id="1720"></path><path d="M458.7 818.9c-3.2-8.6-2.8-17.5-2.9-26.4 0-3 1.9-4.7 4.9-4.9h1c8.1-0.3 8.1-0.3 9.3 7.7 1.4 9.2 3.2 18.2 11.4 24.3 6.5 4.8 14.2 6.1 21.9 7 11.8 1.4 23.4-0.7 35-2.3 9.1-1.2 18.2-2.6 27.2-4.8 13.1-3.2 25.7-7.5 38.1-12.7 17.4-7.3 34.3-15.9 49.7-27.1 1.7-1.2 3.3-2.5 5-3.8 2.2-0.9 2.7 0.1 2.1 1.9-0.5 1.3-1.9 2.1-2.2 3.7-3.8 8.3-10.6 14-17.6 19.3-25.4 19.6-54.3 31.8-85.5 38.5-12.6 2.7-25.5 4.1-38.2 4-15.5 0-31.2-1.4-45.4-9.1-4.9-2.7-9.3-6-12.2-10.9-0.9-1.3-2.1-2.6-1.6-4.4z" fill="#F4F7F7" p-id="1721"></path><path d="M713.1 689.6c4.5 6.3 6.6 13.6 9.1 20.7 3.3 9.3 5.9 18.9 4.8 29-0.8 7.2-6 10.7-13 8.7-8.3-2.3-16-6-23.5-10.2-5.2-2.9-10.3-6-15.5-9 5.5-8.9 12.7-16.4 20.3-23.5 5.8-5.3 11.8-10.5 17.8-15.7z" fill="#FCCC41" p-id="1722"></path><path d="M249.7 792.6c0.3-1.6-1.2-2.5-1.4-4.1 6.1 5.4 11.9 10.9 18.6 15.4 14.9 9.9 31 17.1 47.8 23 10.8 3.8 21.8 7.2 33.1 8.9 19.8 3.1 39.7 6.7 60 3 7.2-1.3 14.2-2.7 20.9-5.7 11.9-5.4 17.3-15.1 18.1-27.7 0.3-5.2 0.2-10.4 0.3-15.6 1.7-2 3.9-0.9 5.9-1.1 0.8-0.1 1.6 0.3 1.8 1.2 0.1 0.9-0.2 1.9-1 1.9-4.5-0.1-3.4 4.4-3.2 5.6 1.5 7-0.4 13.9-0.3 20.8 1.7 3.6-0.6 6.2-2.4 8.8-7.4 10.7-18.2 16.1-30.5 18.5-13.6 2.7-27.3 2.4-41.1 1.5-7.9-0.5-15.8-1.1-23.6-2.4-5-0.8-10.2-1.1-14.9-3.3-23-5.9-44.7-14.5-64.4-28-8.8-6-16.4-13.1-23.7-20.7z" fill="#008ED7" p-id="1723"></path><path d="M337.7 841.4c22.8 4.9 45.8 7.4 69.1 4.8 12.5-1.4 24.6-4.6 34.3-13.4 4.4-4 8-8.5 9.1-14.5 0.5-1.3 1.1-2.6 1.8-4.5 1.6 2.6 0.4 5.8 2.8 7.4 0.9 0.4 1.6 1.2 2 2 6.8 12.1 18.4 17 31 19.8 12.6 2.7 25.3 3.1 38.2 2.3 13.7-0.9 27.1-2.6 40.4-5.8 2.4-0.6 5.1-1.4 7.6-0.1-3.4 3.6-8.3 2.3-12.4 3.9-6 2.4-12.6 2-18.9 3.4-6.8 1.5-13.9 1-20.8 1.4-6.2 0.4-12.9-0.1-18.7 0.7-14.3 2.1-28.7 1.2-43 3.1-10.1 1.4-20.4-0.7-30.6-1.2-0.6 0-1.3-0.5-1.9-0.4-11 1.3-21.8-2.4-32.7-2-15.3 0.5-30.5-0.9-45.4-3.4-3.8-0.6-8.8 0.3-11.9-3.5z" fill="#E6B43B" p-id="1724"></path><path d="M575 709.9c1.6-6-1.6-11.4-6.1-16.4-2.4-2.6-4.4-5.7-6.5-8.5-2.9-3.9-2.9-8.7 0.1-11.4 3.6-3.2 9.3-3 12.7 0.7 2.2 2.4 4.1 5 5.9 7.7 1.9 2.8 3.4 3.1 5.4 0.1 1.8-2.7 3.8-5.3 6-7.7 3.2-3.6 8.5-4.1 11.9-1.5 3.5 2.7 3.9 8.1 0.9 12.2-0.7 0.9-1.3 1.9-2.1 2.7-7.7 8.1-12.2 17.1-10.7 28.9 0.8 6.6-2.9 10-8.5 10.1-5.6 0.1-8.8-3.6-9-10.3v-6.6z" fill="#FAFCFB" p-id="1725"></path><path d="M574.1 839.4c-25.1 6.3-50.5 9.5-76.3 6.9-11.7-1.2-23-4.2-32.7-11.4-4.7-3.5-8.8-7.7-10.3-13.7-0.6-3.4-1.5-6.9-0.3-11 2.8 2.7-0.6 7.8 4.1 8.7 6.6 11.5 17.2 16.7 29.6 19.7 20.5 5 40.9 3.4 61.4 0.2 32.7-5.2 62.2-17.9 88.8-37.3 7.8-5.7 14.6-12.3 20.2-20.1 0.1-1.6 0.9-0.8 1.6-0.5-0.8 4.5-4.5 7.3-6.3 11.2-0.9 1-1.8 2.1-2.7 3.1-19.3 20.6-43.4 33.2-70 41.7-2.3 0.7-4.7 1.6-7.1 2.5z" fill="#008ED7" p-id="1726"></path><path d="M704.1 665.2c2.1 3.1 4.3 6.2 6.4 9.3-1.8 3.8-5.3 6.1-8.1 8.9-10.7 10.9-22 21.1-31.4 33.2-0.5 0.6-1.2 1-2.7 2.3 0.3-9.4-2.5-17.8 6.2-25 9-7.4 16.5-16.4 24.8-24.7 1.5-1.5 3.2-2.7 4.8-4z" fill="#CAE0EA" p-id="1727"></path><path d="M470.7 734.9c-1-0.5-2-0.9-3.8-1.8 12.4-0.8 24-0.5 35.5-2.2 3.6-0.5 6.9-1.5 9.6-3.9 3.4 1.7 1.3 3-0.4 4-5 2.9-10.6 3.4-16.2 3.7-8.2 0.5-16.5 0.2-24.7 0.2z" fill="#0179B3" p-id="1728"></path><path d="M660.4 780.8c-0.5 0.2-1.1 0.3-1.6 0.5-0.3-1.5 0.9-2.3 1.6-3.3 1.2-1.5 0.2-1.9-1.1-2.1 1.4-1.6 2.5-3.6 5-3.9 0.1 3.6-2.5 6-3.9 8.8z" fill="#ACD6E6" p-id="1729"></path><path d="M523.4 650.8c2.2-2.5 5.1-1.9 7.8-1.9-2.3 1.8-5 2-7.8 1.9zM535.1 648.8c2.6-2.1 5.7-2 8.8-1.9-2.8 1.2-5.7 2-8.8 1.9z" fill="#007EC6" p-id="1730"></path><path d="M447.2 719.1c-0.1-13.4-0.1-26.7-0.2-40.1 0-0.8 0-2.2 0.6-2.1 5.8 0.9 10.9-4.8 16.9-1.8 0.1 0.1 0.1 0.3 0.1 0.5-7.7 0.9-7.7 0.9-7.7 9.2v30.3c0 3.1 0.3 6.1-4.5 4.2-1.4-0.6-3.4-0.2-5.2-0.2z" fill="#008FD4" p-id="1731"></path><path d="M447.2 771.9c0-10.8 0.1-21.7-0.1-32.5-0.1-3.2 0.6-5 4.2-4.5 1.5 0.2 2.9-0.4 3.7-1.9 1.9-0.2 3.6-1.7 5.9-0.6-2.9 1.3-4.2 3.4-4.2 6.6-0.1 10.2-0.5 20.4-0.6 30.6 0 3.4-0.4 5.2-4.2 3.1-1.4-1-3.3 0.4-4.7-0.8z" fill="#0791D5" p-id="1732"></path><path d="M306.8 438.8c31.8 0.1 56 5.4 79.2 15 3.8 1.5 7 3.9 6.1 8.7-0.7 3.7-3.5 5.8-7 5.5-3.4-0.3-6.8-2-10-3.3-19.9-7.9-40.5-11.9-62-11.8-14.7 0.1-29.1 1.4-43.2 5.8-6.9 2.2-11.4-0.9-10.9-7.1 0.3-3.2 2-5 4.9-5.9 16.1-5 32.7-6.7 42.9-6.9z" fill="#FAF9F8" p-id="1733"></path><path d="M584.6 438.6c16.1 0.5 32.4 2.1 48.1 7.1 3.6 1.1 6.1 3.9 5.4 7.6-0.7 3.6-3 6.2-7.6 5.9-3.8-0.2-7.3-1.6-10.8-2.5-17.4-4.7-35.2-4.6-52.8-3.1-17.1 1.4-33.8 5.6-49.5 12.9-3.8 1.7-7.9 3-11.1-0.9-2.9-3.4-1.9-8 2.3-10.3 7.6-4.3 16-6.8 24.3-9.3 16.8-5 34-7 51.7-7.4z" fill="#FAFAF9" p-id="1734"></path><path d="M792.6 600.3c11.1 2.4 22.4 4.7 32.8 9.4 23.1 10.4 45.1 22.4 58.4 45.4 8.1 14 12.7 28.9 13.2 45.1 0.4 13.2-0.1 26.3-4.1 39-6.8 21.7-18.7 40-36.7 54.1-13.9 10.9-29.8 17.4-46.7 21.4-8.5 2-17.3 2.5-26.1 3-2.1 0.2-3.3-1.6-5.1-2.2-10.6-5.8-17.3-15.2-23-25.3-10.7-19.2-16.6-39.8-18.2-61.7-0.4-5.3-1.7-10.7-1.7-16 0.3-27.7 3.7-54.8 17.2-79.7 7-12.9 16.8-22.6 29.9-29.2 3.2-1.6 6.6-2.5 10.1-3.3z" fill="#F4BD1B" p-id="1735"></path></svg>